# Blender OBJ File: /home/william/Documents/Blender/Letters/alphabet.blend
# www.blender.org
#StarLogoCommand ComputeNormals
mtllib k.mtl
o Font.001_Mesh
v -0.13236618042 0.054000377655 1.20119929314
v 1.64963150024 1.992000103 1.20119929314
v 0.917633056641 1.992000103 1.20119929314
v -0.80436706543 0.120000123978 1.20119929314
v -0.80436706543 1.992000103 1.20119929314
v -1.39236831665 1.992000103 1.20119929314
v -1.39236831665 -2.09999990463 1.20119929314
v -0.80436706543 -2.09999990463 1.20119929314
v -0.80436706543 -0.077999830246 1.20119929314
v 1.27763366699 -2.09999990463 1.20119929314
v 2.08763504028 -2.09999990463 1.20119929314
v 2.08763504028 -2.09999990463 0.0
v 1.27763366699 -2.09999990463 0.0
v -0.80436706543 -0.077999830246 0.0
v -0.80436706543 -2.09999990463 0.0
v -1.39236831665 -2.09999990463 0.0
v -1.39236831665 1.992000103 0.0
v -0.80436706543 1.992000103 0.0
v -0.80436706543 0.120000123978 0.0
v 0.917633056641 1.992000103 0.0
v 1.64963150024 1.992000103 0.0
v -0.13236618042 0.054000377655 0.0
vt 0.0 0.0 0.0
vt 0.0 0.0 0.0
vt 0.0 0.0 0.0
vt 0.0 0.0 0.0
vt 0.0 0.0 0.0
vt 0.0 0.0 0.0
vt 0.0 0.0 0.0
vt 0.0 0.0 0.0
vt 0.0 0.0 0.0
vt 0.0 0.0 0.0
vt 0.0 0.0 0.0
vt 0.0 0.0 0.0
vt 0.0 0.0 0.0
vt 0.0 0.0 0.0
vt 0.0 0.0 0.0
vt 0.0 0.0 0.0
vt 0.0 0.0 0.0
vt 0.0 0.0 0.0
vt 0.0 0.0 0.0
vt 0.0 0.0 0.0
vt 0.0 0.0 0.0
vt 0.0 0.0 0.0
vt 0.0 0.0 0.0
vt 0.0 0.0 0.0
vt 0.0 0.0 0.0
vt 0.0 0.0 0.0
vt 0.0 0.0 0.0
vt 0.0 0.0 0.0
vt 0.0 0.0 0.0
vt 0.0 0.0 0.0
vt 0.0 0.0 0.0
vt 0.0 0.0 0.0
vt 0.0 0.0 0.0
vt 0.0 0.0 0.0
vt 0.0 0.0 0.0
vt 0.0 0.0 0.0
vt 0.0 0.0 0.0
vt 0.0 0.0 0.0
vt 0.0 0.0 0.0
vt 0.0 0.0 0.0
vt 0.0 0.0 0.0
vt 0.0 0.0 0.0
vt 0.0 0.0 0.0
vt 0.0 0.0 0.0
vt 0.0 0.0 0.0
vt 0.0 0.0 0.0
vt 0.0 0.0 0.0
vt 0.0 0.0 0.0
vt 0.0 0.0 0.0
vt 0.0 0.0 0.0
vt 0.0 0.0 0.0
vt 0.0 0.0 0.0
vt 0.0 0.0 0.0
vt 0.0 0.0 0.0
vt 0.0 0.0 0.0
vt 0.0 0.0 0.0
vt 0.0 0.0 0.0
vt 0.0 0.0 0.0
vt 0.0 0.0 0.0
vt 0.0 0.0 0.0
vt 0.0 0.0 0.0
vt 0.0 0.0 0.0
vt 0.0 0.0 0.0
vt 0.0 0.0 0.0
vt 0.0 0.0 0.0
vt 0.0 0.0 0.0
vt 0.0 0.0 0.0
vt 0.0 0.0 0.0
vt 0.0 0.0 0.0
vt 0.0 0.0 0.0
vt 0.0 0.0 0.0
vt 0.0 0.0 0.0
vt 0.0 0.0 0.0
vt 0.0 0.0 0.0
vt 0.0 0.0 0.0
vt 0.0 0.0 0.0
vt 0.0 0.0 0.0
vt 0.0 0.0 0.0
vt 0.0 0.0 0.0
vt 0.0 0.0 0.0
vt 0.0 0.0 0.0
vt 0.0 0.0 0.0
vt 0.0 0.0 0.0
vt 0.0 0.0 0.0
vt 0.0 0.0 0.0
vt 0.0 0.0 0.0
vt 0.0 0.0 0.0
vt 0.0 0.0 0.0
vt 0.0 0.0 0.0
vt 0.0 0.0 0.0
vt 0.0 0.0 0.0
vt 0.0 0.0 0.0
vt 0.0 0.0 0.0
vt 0.0 0.0 0.0
vt 0.0 0.0 0.0
vt 0.0 0.0 0.0
vt 0.0 0.0 0.0
vt 0.0 0.0 0.0
vn 0.36320528388 0.895912468433 0.25577878952
vn 0.429862111807 0.18174149096 0.884414255619
vn -0.291491001844 -0.718518793583 0.631477355957
vn 0.577350258827 -0.577350258827 0.577350258827
vn 0.429862111807 0.18174149096 0.884414255619
vn -0.577350258827 -0.577350258827 0.577350258827
vn 0.36320528388 0.895912468433 0.25577878952
vn 0.432851940393 0.0123297041282 0.901380717754
vn 0.429862111807 0.18174149096 0.884414255619
vn 0.432851940393 0.0123297041282 0.901380717754
vn 0.435235917568 -0.169717907906 0.88417506218
vn 0.429862111807 0.18174149096 0.884414255619
vn 0.429862111807 0.18174149096 0.884414255619
vn 0.435235917568 -0.169717907906 0.88417506218
vn -0.577350258827 -0.577350258827 0.577350258827
vn 0.432851940393 0.0123297041282 0.901380717754
vn -0.386284649372 0.879997730255 0.276384085417
vn 0.435235917568 -0.169717907906 0.88417506218
vn -0.386284649372 0.879997730255 0.276384085417
vn -0.313097208738 0.713448941708 0.626865804195
vn 0.435235917568 -0.169717907906 0.88417506218
vn 0.435235917568 -0.169717907906 0.88417506218
vn 0.577350258827 0.577350258827 0.577350258827
vn -0.577350258827 -0.577350258827 0.577350258827
vn 0.577350258827 0.577350258827 0.577350258827
vn -0.577350258827 0.577350258827 0.577350258827
vn -0.577350258827 -0.577350258827 0.577350258827
vn -0.577350258827 0.577350258827 -0.577350258827
vn -0.577350258827 -0.577350258827 -0.577350258827
vn -0.577350258827 -0.577350258827 0.577350258827
vn -0.577350258827 0.577350258827 0.577350258827
vn 0.577350258827 0.577350258827 -0.577350258827
vn -0.577350258827 0.577350258827 -0.577350258827
vn -0.577350258827 0.577350258827 0.577350258827
vn 0.577350258827 0.577350258827 0.577350258827
vn 0.435235917568 -0.169717907906 -0.88417506218
vn 0.577350258827 0.577350258827 -0.577350258827
vn 0.577350258827 0.577350258827 0.577350258827
vn 0.435235917568 -0.169717907906 0.88417506218
vn -0.313097208738 0.713448941708 -0.626865804195
vn 0.435235917568 -0.169717907906 -0.88417506218
vn 0.435235917568 -0.169717907906 0.88417506218
vn -0.313097208738 0.713448941708 0.626865804195
vn -0.386284649372 0.879997730255 -0.276384085417
vn -0.313097208738 0.713448941708 -0.626865804195
vn -0.313097208738 0.713448941708 0.626865804195
vn -0.386284649372 0.879997730255 0.276384085417
vn -0.386284649372 0.879997730255 0.276384085417
vn 0.432851940393 0.0123297041282 0.901380717754
vn 0.432851940393 0.0123297041282 -0.901380717754
vn -0.386284649372 0.879997730255 -0.276384085417
vn 0.432851940393 0.0123297041282 0.901380717754
vn 0.36320528388 0.895912468433 0.25577878952
vn 0.36320528388 0.895912468433 -0.25577878952
vn 0.432851940393 0.0123297041282 -0.901380717754
vn 0.577350258827 -0.577350258827 -0.577350258827
vn 0.429862111807 0.18174149096 -0.884414255619
vn 0.429862111807 0.18174149096 0.884414255619
vn 0.577350258827 -0.577350258827 0.577350258827
vn -0.577350258827 -0.577350258827 -0.577350258827
vn 0.577350258827 -0.577350258827 -0.577350258827
vn 0.577350258827 -0.577350258827 0.577350258827
vn -0.577350258827 -0.577350258827 0.577350258827
vn 0.429862111807 0.18174149096 -0.884414255619
vn -0.291491001844 -0.718518793583 -0.631477355957
vn -0.291491001844 -0.718518793583 0.631477355957
vn 0.429862111807 0.18174149096 0.884414255619
vn -0.291491001844 -0.718518793583 -0.631477355957
vn 0.36320528388 0.895912468433 -0.25577878952
vn 0.36320528388 0.895912468433 0.25577878952
vn -0.291491001844 -0.718518793583 0.631477355957
vn -0.291491001844 -0.718518793583 -0.631477355957
vn 0.429862111807 0.18174149096 -0.884414255619
vn 0.36320528388 0.895912468433 -0.25577878952
vn -0.577350258827 -0.577350258827 -0.577350258827
vn 0.429862111807 0.18174149096 -0.884414255619
vn 0.577350258827 -0.577350258827 -0.577350258827
vn 0.429862111807 0.18174149096 -0.884414255619
vn 0.432851940393 0.0123297041282 -0.901380717754
vn 0.36320528388 0.895912468433 -0.25577878952
vn 0.429862111807 0.18174149096 -0.884414255619
vn 0.435235917568 -0.169717907906 -0.88417506218
vn 0.432851940393 0.0123297041282 -0.901380717754
vn -0.577350258827 -0.577350258827 -0.577350258827
vn 0.435235917568 -0.169717907906 -0.88417506218
vn 0.429862111807 0.18174149096 -0.884414255619
vn 0.435235917568 -0.169717907906 -0.88417506218
vn -0.386284649372 0.879997730255 -0.276384085417
vn 0.432851940393 0.0123297041282 -0.901380717754
vn 0.435235917568 -0.169717907906 -0.88417506218
vn -0.313097208738 0.713448941708 -0.626865804195
vn -0.386284649372 0.879997730255 -0.276384085417
vn -0.577350258827 -0.577350258827 -0.577350258827
vn 0.577350258827 0.577350258827 -0.577350258827
vn 0.435235917568 -0.169717907906 -0.88417506218
vn -0.577350258827 -0.577350258827 -0.577350258827
vn -0.577350258827 0.577350258827 -0.577350258827
vn 0.577350258827 0.577350258827 -0.577350258827
f 11/1/1 9/2/2 10/3/3 
f 8/4/4 9/5/5 7/6/6 
f 11/7/7 1/8/8 9/9/9 
f 1/10/10 4/11/11 9/12/12 
f 9/13/13 4/14/14 7/15/15 
f 1/16/16 2/17/17 4/18/18 
f 2/19/19 3/20/20 4/21/21 
f 4/22/22 5/23/23 7/24/24 
f 5/25/25 6/26/26 7/27/27 
f 17/28/28 16/29/29 7/30/30 6/31/31 
f 18/32/32 17/33/33 6/34/34 5/35/35 
f 19/36/36 18/37/37 5/38/38 4/39/39 
f 20/40/40 19/41/41 4/42/42 3/43/43 
f 21/44/44 20/45/45 3/46/46 2/47/47 
f 2/48/48 1/49/49 22/50/50 21/51/51 
f 1/52/52 11/53/53 12/54/54 22/55/55 
f 15/56/56 14/57/57 9/58/58 8/59/59 
f 16/60/60 15/61/61 8/62/62 7/63/63 
f 14/64/64 13/65/65 10/66/66 9/67/67 
f 13/68/68 12/69/69 11/70/70 10/71/71 
f 13/72/72 14/73/73 12/74/74 
f 16/75/75 14/76/76 15/77/77 
f 14/78/78 22/79/79 12/80/80 
f 14/81/81 19/82/82 22/83/83 
f 16/84/84 19/85/85 14/86/86 
f 19/87/87 21/88/88 22/89/89 
f 19/90/90 20/91/91 21/92/92 
f 16/93/93 18/94/94 19/95/95 
f 16/96/96 17/97/97 18/98/98 
