# Blender OBJ File: /home/william/Documents/Blender/Letters/alphabet.blend
# www.blender.org
#StarLogoCommand ComputeNormals
mtllib m.mtl
o Font.001_Mesh
v 1.93856430054 1.992000103 1.20119929314
v 1.39256668091 1.992000103 1.20119929314
v 0.0305633544922 0.312000274658 1.20119929314
v -1.32543563843 1.992000103 1.20119929314
v -1.87743759155 1.992000103 1.20119929314
v -1.87743759155 -2.09999990463 1.20119929314
v -1.28943634033 -2.09999990463 1.20119929314
v -1.28943634033 1.08600020409 1.20119929314
v -1.27743530273 1.08600020409 1.20119929314
v -0.0174369812012 -0.497999787331 1.20119929314
v 0.0785636901855 -0.497999787331 1.20119929314
v 1.33856582642 1.08600020409 1.20119929314
v 1.35056686401 1.08600020409 1.20119929314
v 1.35056686401 -2.09999990463 1.20119929314
v 1.93856430054 -2.09999990463 1.20119929314
v 1.93856430054 -2.09999990463 0.0
v 1.35056686401 -2.09999990463 0.0
v 1.35056686401 1.08600020409 0.0
v 1.33856582642 1.08600020409 0.0
v 0.0785636901855 -0.497999787331 0.0
v -0.0174369812012 -0.497999787331 0.0
v -1.27743530273 1.08600020409 0.0
v -1.28943634033 1.08600020409 0.0
v -1.28943634033 -2.09999990463 0.0
v -1.87743759155 -2.09999990463 0.0
v -1.87743759155 1.992000103 0.0
v -1.32543563843 1.992000103 0.0
v 0.0305633544922 0.312000274658 0.0
v 1.39256668091 1.992000103 0.0
v 1.93856430054 1.992000103 0.0
vt 0.0 0.0 0.0
vt 0.0 0.0 0.0
vt 0.0 0.0 0.0
vt 0.0 0.0 0.0
vt 0.0 0.0 0.0
vt 0.0 0.0 0.0
vt 0.0 0.0 0.0
vt 0.0 0.0 0.0
vt 0.0 0.0 0.0
vt 0.0 0.0 0.0
vt 0.0 0.0 0.0
vt 0.0 0.0 0.0
vt 0.0 0.0 0.0
vt 0.0 0.0 0.0
vt 0.0 0.0 0.0
vt 0.0 0.0 0.0
vt 0.0 0.0 0.0
vt 0.0 0.0 0.0
vt 0.0 0.0 0.0
vt 0.0 0.0 0.0
vt 0.0 0.0 0.0
vt 0.0 0.0 0.0
vt 0.0 0.0 0.0
vt 0.0 0.0 0.0
vt 0.0 0.0 0.0
vt 0.0 0.0 0.0
vt 0.0 0.0 0.0
vt 0.0 0.0 0.0
vt 0.0 0.0 0.0
vt 0.0 0.0 0.0
vt 0.0 0.0 0.0
vt 0.0 0.0 0.0
vt 0.0 0.0 0.0
vt 0.0 0.0 0.0
vt 0.0 0.0 0.0
vt 0.0 0.0 0.0
vt 0.0 0.0 0.0
vt 0.0 0.0 0.0
vt 0.0 0.0 0.0
vt 0.0 0.0 0.0
vt 0.0 0.0 0.0
vt 0.0 0.0 0.0
vt 0.0 0.0 0.0
vt 0.0 0.0 0.0
vt 0.0 0.0 0.0
vt 0.0 0.0 0.0
vt 0.0 0.0 0.0
vt 0.0 0.0 0.0
vt 0.0 0.0 0.0
vt 0.0 0.0 0.0
vt 0.0 0.0 0.0
vt 0.0 0.0 0.0
vt 0.0 0.0 0.0
vt 0.0 0.0 0.0
vt 0.0 0.0 0.0
vt 0.0 0.0 0.0
vt 0.0 0.0 0.0
vt 0.0 0.0 0.0
vt 0.0 0.0 0.0
vt 0.0 0.0 0.0
vt 0.0 0.0 0.0
vt 0.0 0.0 0.0
vt 0.0 0.0 0.0
vt 0.0 0.0 0.0
vt 0.0 0.0 0.0
vt 0.0 0.0 0.0
vt 0.0 0.0 0.0
vt 0.0 0.0 0.0
vt 0.0 0.0 0.0
vt 0.0 0.0 0.0
vt 0.0 0.0 0.0
vt 0.0 0.0 0.0
vt 0.0 0.0 0.0
vt 0.0 0.0 0.0
vt 0.0 0.0 0.0
vt 0.0 0.0 0.0
vt 0.0 0.0 0.0
vt 0.0 0.0 0.0
vt 0.0 0.0 0.0
vt 0.0 0.0 0.0
vt 0.0 0.0 0.0
vt 0.0 0.0 0.0
vt 0.0 0.0 0.0
vt 0.0 0.0 0.0
vt 0.0 0.0 0.0
vt 0.0 0.0 0.0
vt 0.0 0.0 0.0
vt 0.0 0.0 0.0
vt 0.0 0.0 0.0
vt 0.0 0.0 0.0
vt 0.0 0.0 0.0
vt 0.0 0.0 0.0
vt 0.0 0.0 0.0
vt 0.0 0.0 0.0
vt 0.0 0.0 0.0
vt 0.0 0.0 0.0
vt 0.0 0.0 0.0
vt 0.0 0.0 0.0
vt 0.0 0.0 0.0
vt 0.0 0.0 0.0
vt 0.0 0.0 0.0
vt 0.0 0.0 0.0
vt 0.0 0.0 0.0
vt 0.0 0.0 0.0
vt 0.0 0.0 0.0
vt 0.0 0.0 0.0
vt 0.0 0.0 0.0
vt 0.0 0.0 0.0
vt 0.0 0.0 0.0
vt 0.0 0.0 0.0
vt 0.0 0.0 0.0
vt 0.0 0.0 0.0
vt 0.0 0.0 0.0
vt 0.0 0.0 0.0
vt 0.0 0.0 0.0
vt 0.0 0.0 0.0
vt 0.0 0.0 0.0
vt 0.0 0.0 0.0
vt 0.0 0.0 0.0
vt 0.0 0.0 0.0
vt 0.0 0.0 0.0
vt 0.0 0.0 0.0
vt 0.0 0.0 0.0
vt 0.0 0.0 0.0
vt 0.0 0.0 0.0
vt 0.0 0.0 0.0
vt 0.0 0.0 0.0
vt 0.0 0.0 0.0
vt 0.0 0.0 0.0
vt 0.0 0.0 0.0
vt 0.0 0.0 0.0
vt 0.0 0.0 0.0
vt 0.0 0.0 0.0
vt 0.0 0.0 0.0
vt 0.0 0.0 0.0
vt 0.0 0.0 0.0
vt 0.0 0.0 0.0
vt 0.0 0.0 0.0
vn 0.34046843648 -0.705870747566 0.621150374413
vn 0.444452434778 -0.000457789399661 0.895802259445
vn -0.34046843648 -0.705870747566 0.621150374413
vn 0.577350258827 -0.577350258827 0.577350258827
vn -0.301503032446 -0.301503032446 0.904539525509
vn -0.577350258827 -0.577350258827 0.577350258827
vn 0.34046843648 -0.705870747566 0.621150374413
vn 0.249189674854 -0.516690969467 0.819106161594
vn 0.444452434778 -0.000457789399661 0.895802259445
vn 0.444452434778 -0.000457789399661 0.895802259445
vn -0.249189674854 -0.516690969467 0.819106161594
vn -0.34046843648 -0.705870747566 0.621150374413
vn 0.577350258827 -0.577350258827 0.577350258827
vn 0.301503032446 -0.301503032446 0.904539525509
vn -0.577350258827 -0.577350258827 0.577350258827
vn 0.577350258827 -0.577350258827 0.577350258827
vn 0.577350258827 0.577350258827 0.577350258827
vn -0.301503032446 -0.301503032446 0.904539525509
vn -0.301503032446 -0.301503032446 0.904539525509
vn 0.577350258827 0.577350258827 0.577350258827
vn 0.249189674854 -0.516690969467 0.819106161594
vn 0.249189674854 -0.516690969467 0.819106161594
vn 0.577350258827 0.577350258827 0.577350258827
vn 0.444452434778 -0.000457789399661 0.895802259445
vn 0.577350258827 0.577350258827 0.577350258827
vn -0.336931884289 0.706916093826 0.621889531612
vn 0.444452434778 -0.000457789399661 0.895802259445
vn 0.444452434778 -0.000457789399661 0.895802259445
vn 0.337758749723 0.706677854061 0.621711671352
vn -0.249189674854 -0.516690969467 0.819106161594
vn -0.249189674854 -0.516690969467 0.819106161594
vn 0.337758749723 0.706677854061 0.621711671352
vn 0.301503032446 -0.301503032446 0.904539525509
vn 0.301503032446 -0.301503032446 0.904539525509
vn 0.337758749723 0.706677854061 0.621711671352
vn -0.577350258827 -0.577350258827 0.577350258827
vn 0.337758749723 0.706677854061 0.621711671352
vn -0.577350258827 0.577350258827 0.577350258827
vn -0.577350258827 -0.577350258827 0.577350258827
vn -0.577350258827 0.577350258827 -0.577350258827
vn -0.577350258827 -0.577350258827 -0.577350258827
vn -0.577350258827 -0.577350258827 0.577350258827
vn -0.577350258827 0.577350258827 0.577350258827
vn 0.337758749723 0.706677854061 -0.621711671352
vn -0.577350258827 0.577350258827 -0.577350258827
vn -0.577350258827 0.577350258827 0.577350258827
vn 0.337758749723 0.706677854061 0.621711671352
vn 0.301503032446 -0.301503032446 -0.904539525509
vn -0.249189674854 -0.516690969467 -0.819106161594
vn -0.249189674854 -0.516690969467 0.819106161594
vn 0.301503032446 -0.301503032446 0.904539525509
vn 0.444452434778 -0.000457789399661 -0.895802259445
vn 0.337758749723 0.706677854061 -0.621711671352
vn 0.337758749723 0.706677854061 0.621711671352
vn 0.444452434778 -0.000457789399661 0.895802259445
vn -0.336931884289 0.706916093826 -0.621889531612
vn 0.444452434778 -0.000457789399661 -0.895802259445
vn 0.444452434778 -0.000457789399661 0.895802259445
vn -0.336931884289 0.706916093826 0.621889531612
vn -0.336931884289 0.706916093826 0.621889531612
vn 0.577350258827 0.577350258827 0.577350258827
vn 0.577350258827 0.577350258827 -0.577350258827
vn -0.336931884289 0.706916093826 -0.621889531612
vn 0.249189674854 -0.516690969467 -0.819106161594
vn -0.301503032446 -0.301503032446 -0.904539525509
vn -0.301503032446 -0.301503032446 0.904539525509
vn 0.249189674854 -0.516690969467 0.819106161594
vn 0.577350258827 0.577350258827 0.577350258827
vn 0.577350258827 -0.577350258827 0.577350258827
vn 0.577350258827 -0.577350258827 -0.577350258827
vn 0.577350258827 0.577350258827 -0.577350258827
vn 0.577350258827 -0.577350258827 -0.577350258827
vn 0.301503032446 -0.301503032446 -0.904539525509
vn 0.301503032446 -0.301503032446 0.904539525509
vn 0.577350258827 -0.577350258827 0.577350258827
vn -0.577350258827 -0.577350258827 -0.577350258827
vn 0.577350258827 -0.577350258827 -0.577350258827
vn 0.577350258827 -0.577350258827 0.577350258827
vn -0.577350258827 -0.577350258827 0.577350258827
vn -0.249189674854 -0.516690969467 -0.819106161594
vn -0.34046843648 -0.705870747566 -0.621150374413
vn -0.34046843648 -0.705870747566 0.621150374413
vn -0.249189674854 -0.516690969467 0.819106161594
vn 0.34046843648 -0.705870747566 -0.621150374413
vn 0.249189674854 -0.516690969467 -0.819106161594
vn 0.249189674854 -0.516690969467 0.819106161594
vn 0.34046843648 -0.705870747566 0.621150374413
vn -0.301503032446 -0.301503032446 -0.904539525509
vn -0.577350258827 -0.577350258827 -0.577350258827
vn -0.577350258827 -0.577350258827 0.577350258827
vn -0.301503032446 -0.301503032446 0.904539525509
vn -0.577350258827 -0.577350258827 -0.577350258827
vn 0.577350258827 -0.577350258827 -0.577350258827
vn 0.577350258827 -0.577350258827 0.577350258827
vn -0.577350258827 -0.577350258827 0.577350258827
vn -0.34046843648 -0.705870747566 -0.621150374413
vn 0.34046843648 -0.705870747566 -0.621150374413
vn 0.34046843648 -0.705870747566 0.621150374413
vn -0.34046843648 -0.705870747566 0.621150374413
vn -0.34046843648 -0.705870747566 -0.621150374413
vn 0.444452434778 -0.000457789399661 -0.895802259445
vn 0.34046843648 -0.705870747566 -0.621150374413
vn -0.577350258827 -0.577350258827 -0.577350258827
vn -0.301503032446 -0.301503032446 -0.904539525509
vn 0.577350258827 -0.577350258827 -0.577350258827
vn 0.444452434778 -0.000457789399661 -0.895802259445
vn 0.249189674854 -0.516690969467 -0.819106161594
vn 0.34046843648 -0.705870747566 -0.621150374413
vn -0.34046843648 -0.705870747566 -0.621150374413
vn -0.249189674854 -0.516690969467 -0.819106161594
vn 0.444452434778 -0.000457789399661 -0.895802259445
vn -0.577350258827 -0.577350258827 -0.577350258827
vn 0.301503032446 -0.301503032446 -0.904539525509
vn 0.577350258827 -0.577350258827 -0.577350258827
vn -0.301503032446 -0.301503032446 -0.904539525509
vn 0.577350258827 0.577350258827 -0.577350258827
vn 0.577350258827 -0.577350258827 -0.577350258827
vn 0.249189674854 -0.516690969467 -0.819106161594
vn 0.577350258827 0.577350258827 -0.577350258827
vn -0.301503032446 -0.301503032446 -0.904539525509
vn 0.444452434778 -0.000457789399661 -0.895802259445
vn 0.577350258827 0.577350258827 -0.577350258827
vn 0.249189674854 -0.516690969467 -0.819106161594
vn 0.444452434778 -0.000457789399661 -0.895802259445
vn -0.336931884289 0.706916093826 -0.621889531612
vn 0.577350258827 0.577350258827 -0.577350258827
vn -0.249189674854 -0.516690969467 -0.819106161594
vn 0.337758749723 0.706677854061 -0.621711671352
vn 0.444452434778 -0.000457789399661 -0.895802259445
vn 0.301503032446 -0.301503032446 -0.904539525509
vn 0.337758749723 0.706677854061 -0.621711671352
vn -0.249189674854 -0.516690969467 -0.819106161594
vn -0.577350258827 -0.577350258827 -0.577350258827
vn 0.337758749723 0.706677854061 -0.621711671352
vn 0.301503032446 -0.301503032446 -0.904539525509
vn -0.577350258827 -0.577350258827 -0.577350258827
vn -0.577350258827 0.577350258827 -0.577350258827
vn 0.337758749723 0.706677854061 -0.621711671352
f 11/1/1 3/2/2 10/3/3 
f 15/4/4 13/5/5 14/6/6 
f 11/7/7 12/8/8 3/9/9 
f 3/10/10 9/11/11 10/12/12 
f 7/13/13 8/14/14 6/15/15 
f 15/16/16 1/17/17 13/18/18 
f 13/19/19 1/20/20 12/21/21 
f 12/22/22 1/23/23 3/24/24 
f 1/25/25 2/26/26 3/27/27 
f 3/28/28 4/29/29 9/30/30 
f 9/31/31 4/32/32 8/33/33 
f 8/34/34 4/35/35 6/36/36 
f 4/37/37 5/38/38 6/39/39 
f 26/40/40 25/41/41 6/42/42 5/43/43 
f 27/44/44 26/45/45 5/46/46 4/47/47 
f 23/48/48 22/49/49 9/50/50 8/51/51 
f 28/52/52 27/53/53 4/54/54 3/55/55 
f 29/56/56 28/57/57 3/58/58 2/59/59 
f 2/60/60 1/61/61 30/62/62 29/63/63 
f 19/64/64 18/65/65 13/66/66 12/67/67 
f 1/68/68 15/69/69 16/70/70 30/71/71 
f 24/72/72 23/73/73 8/74/74 7/75/75 
f 25/76/76 24/77/77 7/78/78 6/79/79 
f 22/80/80 21/81/81 10/82/82 9/83/83 
f 20/84/84 19/85/85 12/86/86 11/87/87 
f 18/88/88 17/89/89 14/90/90 13/91/91 
f 17/92/92 16/93/93 15/94/94 14/95/95 
f 21/96/96 20/97/97 11/98/98 10/99/99 
f 21/100/100 28/101/101 20/102/102 
f 17/103/103 18/104/104 16/105/105 
f 28/106/106 19/107/107 20/108/108 
f 21/109/109 22/110/110 28/111/111 
f 25/112/112 23/113/113 24/114/114 
f 18/115/115 30/116/116 16/117/117 
f 19/118/118 30/119/119 18/120/120 
f 28/121/121 30/122/122 19/123/123 
f 28/124/124 29/125/125 30/126/126 
f 22/127/127 27/128/128 28/129/129 
f 23/130/130 27/131/131 22/132/132 
f 25/133/133 27/134/134 23/135/135 
f 25/136/136 26/137/137 27/138/138 
