# Blender OBJ File: /home/william/Documents/Blender/Letters/alphabet.blend
# www.blender.org
#StarLogoCommand ComputeNormals
mtllib w.mtl
o Font.001_Mesh
v -3.09030151367 1.992000103 1.20119929314
v 3.15570068359 1.992000103 1.20119929314
v 2.57369995117 1.992000103 1.20119929314
v 1.45770263672 -0.827999830246 1.20119929314
v 0.31770324707 1.992000103 1.20119929314
v -0.240295410156 1.992000103 1.20119929314
v -1.3742980957 -0.827999830246 1.20119929314
v -2.50230407715 1.992000103 1.20119929314
v -1.4342956543 -2.13599991798 1.20119929314
v -1.32029724121 -2.13599991798 1.20119929314
v 0.0357055664062 1.21200037003 1.20119929314
v 1.37969970703 -2.13599991798 1.20119929314
v 1.49369812012 -2.13599991798 1.20119929314
v 1.49369812012 -2.13599991798 0.0
v 1.37969970703 -2.13599991798 0.0
v 0.0357055664062 1.21200037003 0.0
v -1.32029724121 -2.13599991798 0.0
v -1.4342956543 -2.13599991798 0.0
v -3.09030151367 1.992000103 0.0
v -2.50230407715 1.992000103 0.0
v -1.3742980957 -0.827999830246 0.0
v -0.240295410156 1.992000103 0.0
v 0.31770324707 1.992000103 0.0
v 1.45770263672 -0.827999830246 0.0
v 2.57369995117 1.992000103 0.0
v 3.15570068359 1.992000103 0.0
vt 0.0 0.0 0.0
vt 0.0 0.0 0.0
vt 0.0 0.0 0.0
vt 0.0 0.0 0.0
vt 0.0 0.0 0.0
vt 0.0 0.0 0.0
vt 0.0 0.0 0.0
vt 0.0 0.0 0.0
vt 0.0 0.0 0.0
vt 0.0 0.0 0.0
vt 0.0 0.0 0.0
vt 0.0 0.0 0.0
vt 0.0 0.0 0.0
vt 0.0 0.0 0.0
vt 0.0 0.0 0.0
vt 0.0 0.0 0.0
vt 0.0 0.0 0.0
vt 0.0 0.0 0.0
vt 0.0 0.0 0.0
vt 0.0 0.0 0.0
vt 0.0 0.0 0.0
vt 0.0 0.0 0.0
vt 0.0 0.0 0.0
vt 0.0 0.0 0.0
vt 0.0 0.0 0.0
vt 0.0 0.0 0.0
vt 0.0 0.0 0.0
vt 0.0 0.0 0.0
vt 0.0 0.0 0.0
vt 0.0 0.0 0.0
vt 0.0 0.0 0.0
vt 0.0 0.0 0.0
vt 0.0 0.0 0.0
vt 0.0 0.0 0.0
vt 0.0 0.0 0.0
vt 0.0 0.0 0.0
vt 0.0 0.0 0.0
vt 0.0 0.0 0.0
vt 0.0 0.0 0.0
vt 0.0 0.0 0.0
vt 0.0 0.0 0.0
vt 0.0 0.0 0.0
vt 0.0 0.0 0.0
vt 0.0 0.0 0.0
vt 0.0 0.0 0.0
vt 0.0 0.0 0.0
vt 0.0 0.0 0.0
vt 0.0 0.0 0.0
vt 0.0 0.0 0.0
vt 0.0 0.0 0.0
vt 0.0 0.0 0.0
vt 0.0 0.0 0.0
vt 0.0 0.0 0.0
vt 0.0 0.0 0.0
vt 0.0 0.0 0.0
vt 0.0 0.0 0.0
vt 0.0 0.0 0.0
vt 0.0 0.0 0.0
vt 0.0 0.0 0.0
vt 0.0 0.0 0.0
vt 0.0 0.0 0.0
vt 0.0 0.0 0.0
vt 0.0 0.0 0.0
vt 0.0 0.0 0.0
vt 0.0 0.0 0.0
vt 0.0 0.0 0.0
vt 0.0 0.0 0.0
vt 0.0 0.0 0.0
vt 0.0 0.0 0.0
vt 0.0 0.0 0.0
vt 0.0 0.0 0.0
vt 0.0 0.0 0.0
vt 0.0 0.0 0.0
vt 0.0 0.0 0.0
vt 0.0 0.0 0.0
vt 0.0 0.0 0.0
vt 0.0 0.0 0.0
vt 0.0 0.0 0.0
vt 0.0 0.0 0.0
vt 0.0 0.0 0.0
vt 0.0 0.0 0.0
vt 0.0 0.0 0.0
vt 0.0 0.0 0.0
vt 0.0 0.0 0.0
vt 0.0 0.0 0.0
vt 0.0 0.0 0.0
vt 0.0 0.0 0.0
vt 0.0 0.0 0.0
vt 0.0 0.0 0.0
vt 0.0 0.0 0.0
vt 0.0 0.0 0.0
vt 0.0 0.0 0.0
vt 0.0 0.0 0.0
vt 0.0 0.0 0.0
vt 0.0 0.0 0.0
vt 0.0 0.0 0.0
vt 0.0 0.0 0.0
vt 0.0 0.0 0.0
vt 0.0 0.0 0.0
vt 0.0 0.0 0.0
vt 0.0 0.0 0.0
vt 0.0 0.0 0.0
vt 0.0 0.0 0.0
vt 0.0 0.0 0.0
vt 0.0 0.0 0.0
vt 0.0 0.0 0.0
vt 0.0 0.0 0.0
vt 0.0 0.0 0.0
vt 0.0 0.0 0.0
vt 0.0 0.0 0.0
vt 0.0 0.0 0.0
vt 0.0 0.0 0.0
vt 0.0 0.0 0.0
vt 0.0 0.0 0.0
vt 0.0 0.0 0.0
vt 0.0 0.0 0.0
vt 0.0 0.0 0.0
vt 0.0 0.0 0.0
vn 0.447657942772 -0.662849903107 0.600193679333
vn 0.467060893774 0.00170905713458 0.884223520756
vn -0.4480214715 -0.662662804127 0.600129008293
vn 0.446922421455 -0.663211643696 0.600342094898
vn 0.467037677765 -0.000427270977525 0.884237349033
vn -0.448120981455 -0.662613511086 0.600109100342
vn 0.467060893774 0.00170905713458 0.884223520756
vn 0.467001140118 -0.000701936136466 0.884256482124
vn -0.4480214715 -0.662662804127 0.600129008293
vn 0.446922421455 -0.663211643696 0.600342094898
vn 0.467001140118 -0.000701936136466 0.884256482124
vn 0.467037677765 -0.000427270977525 0.884237349033
vn 0.447657942772 -0.662849903107 0.600193679333
vn -0.509180426598 0.753912985325 0.415151119232
vn 0.467060893774 0.00170905713458 0.884223520756
vn -0.509180426598 0.753912985325 0.415151119232
vn -0.449797481298 0.661755859852 0.599801123142
vn 0.467060893774 0.00170905713458 0.884223520756
vn 0.467060893774 0.00170905713458 0.884223520756
vn 0.447170376778 0.663095116615 0.600286185741
vn 0.467001140118 -0.000701936136466 0.884256482124
vn 0.467001140118 -0.000701936136466 0.884256482124
vn 0.447170376778 0.663095116615 0.600286185741
vn 0.467037677765 -0.000427270977525 0.884237349033
vn 0.447170376778 0.663095116615 0.600286185741
vn -0.447815328836 0.66276538372 0.600169539452
vn 0.467037677765 -0.000427270977525 0.884237349033
vn 0.467037677765 -0.000427270977525 0.884237349033
vn 0.448484390974 0.662426233292 0.600044310093
vn -0.448120981455 -0.662613511086 0.600109100342
vn 0.448484390974 0.662426233292 0.600044310093
vn -0.50952488184 -0.753407120705 0.415646582842
vn -0.448120981455 -0.662613511086 0.600109100342
vn -0.448120981455 -0.662613511086 0.600109100342
vn -0.50952488184 -0.753407120705 0.415646582842
vn -0.50952488184 -0.753407120705 -0.415646582842
vn -0.448120981455 -0.662613511086 -0.600109100342
vn -0.50952488184 -0.753407120705 0.415646582842
vn 0.448484390974 0.662426233292 0.600044310093
vn 0.448484390974 0.662426233292 -0.600044310093
vn -0.50952488184 -0.753407120705 -0.415646582842
vn 0.467037677765 -0.000427270977525 -0.884237349033
vn 0.448484390974 0.662426233292 -0.600044310093
vn 0.448484390974 0.662426233292 0.600044310093
vn 0.467037677765 -0.000427270977525 0.884237349033
vn -0.447815328836 0.66276538372 -0.600169539452
vn 0.467037677765 -0.000427270977525 -0.884237349033
vn 0.467037677765 -0.000427270977525 0.884237349033
vn -0.447815328836 0.66276538372 0.600169539452
vn 0.447170376778 0.663095116615 -0.600286185741
vn -0.447815328836 0.66276538372 -0.600169539452
vn -0.447815328836 0.66276538372 0.600169539452
vn 0.447170376778 0.663095116615 0.600286185741
vn 0.467060893774 0.00170905713458 -0.884223520756
vn 0.447170376778 0.663095116615 -0.600286185741
vn 0.447170376778 0.663095116615 0.600286185741
vn 0.467060893774 0.00170905713458 0.884223520756
vn -0.449797481298 0.661755859852 -0.599801123142
vn 0.467060893774 0.00170905713458 -0.884223520756
vn 0.467060893774 0.00170905713458 0.884223520756
vn -0.449797481298 0.661755859852 0.599801123142
vn -0.509180426598 0.753912985325 -0.415151119232
vn -0.449797481298 0.661755859852 -0.599801123142
vn -0.449797481298 0.661755859852 0.599801123142
vn -0.509180426598 0.753912985325 0.415151119232
vn 0.447657942772 -0.662849903107 -0.600193679333
vn -0.509180426598 0.753912985325 -0.415151119232
vn -0.509180426598 0.753912985325 0.415151119232
vn 0.447657942772 -0.662849903107 0.600193679333
vn 0.446922421455 -0.663211643696 -0.600342094898
vn 0.467001140118 -0.000701936136466 -0.884256482124
vn 0.467001140118 -0.000701936136466 0.884256482124
vn 0.446922421455 -0.663211643696 0.600342094898
vn 0.467001140118 -0.000701936136466 -0.884256482124
vn -0.4480214715 -0.662662804127 -0.600129008293
vn -0.4480214715 -0.662662804127 0.600129008293
vn 0.467001140118 -0.000701936136466 0.884256482124
vn -0.448120981455 -0.662613511086 -0.600109100342
vn 0.446922421455 -0.663211643696 -0.600342094898
vn 0.446922421455 -0.663211643696 0.600342094898
vn -0.448120981455 -0.662613511086 0.600109100342
vn -0.4480214715 -0.662662804127 -0.600129008293
vn 0.447657942772 -0.662849903107 -0.600193679333
vn 0.447657942772 -0.662849903107 0.600193679333
vn -0.4480214715 -0.662662804127 0.600129008293
vn -0.4480214715 -0.662662804127 -0.600129008293
vn 0.467060893774 0.00170905713458 -0.884223520756
vn 0.447657942772 -0.662849903107 -0.600193679333
vn -0.448120981455 -0.662613511086 -0.600109100342
vn 0.467037677765 -0.000427270977525 -0.884237349033
vn 0.446922421455 -0.663211643696 -0.600342094898
vn -0.4480214715 -0.662662804127 -0.600129008293
vn 0.467001140118 -0.000701936136466 -0.884256482124
vn 0.467060893774 0.00170905713458 -0.884223520756
vn 0.467037677765 -0.000427270977525 -0.884237349033
vn 0.467001140118 -0.000701936136466 -0.884256482124
vn 0.446922421455 -0.663211643696 -0.600342094898
vn 0.467060893774 0.00170905713458 -0.884223520756
vn -0.509180426598 0.753912985325 -0.415151119232
vn 0.447657942772 -0.662849903107 -0.600193679333
vn 0.467060893774 0.00170905713458 -0.884223520756
vn -0.449797481298 0.661755859852 -0.599801123142
vn -0.509180426598 0.753912985325 -0.415151119232
vn 0.467001140118 -0.000701936136466 -0.884256482124
vn 0.447170376778 0.663095116615 -0.600286185741
vn 0.467060893774 0.00170905713458 -0.884223520756
vn 0.467037677765 -0.000427270977525 -0.884237349033
vn 0.447170376778 0.663095116615 -0.600286185741
vn 0.467001140118 -0.000701936136466 -0.884256482124
vn 0.467037677765 -0.000427270977525 -0.884237349033
vn -0.447815328836 0.66276538372 -0.600169539452
vn 0.447170376778 0.663095116615 -0.600286185741
vn -0.448120981455 -0.662613511086 -0.600109100342
vn 0.448484390974 0.662426233292 -0.600044310093
vn 0.467037677765 -0.000427270977525 -0.884237349033
vn -0.448120981455 -0.662613511086 -0.600109100342
vn -0.50952488184 -0.753407120705 -0.415646582842
vn 0.448484390974 0.662426233292 -0.600044310093
f 13/1/1 4/2/2 12/3/3 
f 10/4/4 7/5/5 9/6/6 
f 4/7/7 11/8/8 12/9/9 
f 10/10/10 11/11/11 7/12/12 
f 13/13/13 2/14/14 4/15/15 
f 2/16/16 3/17/17 4/18/18 
f 4/19/19 5/20/20 11/21/21 
f 11/22/22 5/23/23 7/24/24 
f 5/25/25 6/26/26 7/27/27 
f 7/28/28 8/29/29 9/30/30 
f 8/31/31 1/32/32 9/33/33 
f 9/34/34 1/35/35 19/36/36 18/37/37 
f 1/38/38 8/39/39 20/40/40 19/41/41 
f 21/42/42 20/43/43 8/44/44 7/45/45 
f 22/46/46 21/47/47 7/48/48 6/49/49 
f 23/50/50 22/51/51 6/52/52 5/53/53 
f 24/54/54 23/55/55 5/56/56 4/57/57 
f 25/58/58 24/59/59 4/60/60 3/61/61 
f 26/62/62 25/63/63 3/64/64 2/65/65 
f 14/66/66 26/67/67 2/68/68 13/69/69 
f 17/70/70 16/71/71 11/72/72 10/73/73 
f 16/74/74 15/75/75 12/76/76 11/77/77 
f 18/78/78 17/79/79 10/80/80 9/81/81 
f 15/82/82 14/83/83 13/84/84 12/85/85 
f 15/86/86 24/87/87 14/88/88 
f 18/89/89 21/90/90 17/91/91 
f 15/92/92 16/93/93 24/94/94 
f 21/95/95 16/96/96 17/97/97 
f 24/98/98 26/99/99 14/100/100 
f 24/101/101 25/102/102 26/103/103 
f 16/104/104 23/105/105 24/106/106 
f 21/107/107 23/108/108 16/109/109 
f 21/110/110 22/111/111 23/112/112 
f 18/113/113 20/114/114 21/115/115 
f 18/116/116 19/117/117 20/118/118 
