# Created By Carrara 7.0

mtllib barrel-low.Mtl

# Number of vertices: 142
v 30 9.27051 25.794764
v 18.541021 24.27051 25.794764
v 0 30 25.794764
v -18.541025 24.270508 25.794764
v -30 9.270507 25.794764
v -30 -9.270513 25.794764
v -18.541019 -24.27051 25.794764
v 0.000004 -30 25.794764
v 18.541025 -24.270504 25.794764
v 30 -9.270504 25.794764
v 30 9.27051 36.849327
v 18.541021 24.27051 36.849327
v 0 30 36.849327
v -18.541025 24.270508 36.849327
v -30 9.270507 36.849327
v -30 -9.270513 36.849327
v -18.541019 -24.27051 36.849327
v 0.000004 -30 36.849327
v 18.541025 -24.270504 36.849327
v 30 -9.270504 36.849327
v 30 9.27051 47.903885
v 18.541021 24.27051 47.903885
v 0 30 47.903885
v -18.541025 24.270508 47.903885
v -30 9.270507 47.903885
v -30 -9.270513 47.903885
v -18.541019 -24.27051 47.903885
v 0.000004 -30 47.903885
v 18.541025 -24.270504 47.903885
v 30 -9.270504 47.903885
v 30 9.27051 58.95845
v 18.541021 24.27051 58.95845
v 0 30 58.95845
v -18.541025 24.270508 58.95845
v -30 9.270507 58.95845
v -30 -9.270513 58.95845
v -18.541019 -24.27051 58.95845
v 0.000004 -30 58.95845
v 18.541025 -24.270504 58.95845
v 30 -9.270504 58.95845
v 24.27051 7.5 83.66243
v 14.999998 19.635258 83.66243
v -0.000001 24.27051 83.66243
v -15.000004 19.635252 83.66243
v -24.270515 7.5 83.66243
v -24.27051 -7.500003 83.66243
v -15.000002 -19.635254 83.66243
v 0.000001 -24.27051 83.66243
v 15.000002 -19.635252 83.66243
v 24.27051 -7.499997 83.66243
v 17.633556 5.44907 84
v 10.898137 14.26585 84
v -0.000001 17.63356 84
v -10.898142 14.265844 84
v -17.633562 5.44907 84
v -17.633562 -5.44907 84
v -10.898142 -14.26585 84
v 0.000001 -17.633556 84
v 10.898138 -14.265844 84
v 17.633556 -5.449067 84
v 9.270508 2.864742 84
v 5.729489 7.5 84
v -0.000001 9.27051 84
v -5.729492 7.5 84
v -9.270514 2.864742 84
v -9.270512 -2.864745 84
v -5.729489 -7.5 84
v 0 -9.27051 84
v 5.72949 -7.5 84
v 9.270508 -2.864742 84
v -0.000001 0 84
v -30 -9.270513 70.013008
v -30 9.270507 70.013008
v -28.531694 -8.816783 78.553131
v -28.5317 8.81678 78.553131
v -18.541019 -24.27051 70.013008
v -18.541025 24.270508 70.013008
v -17.633562 -23.08263 78.553131
v -17.633562 23.082624 78.553131
v 0.000004 -30 70.013008
v 0.000003 -28.531694 78.553131
v -0.000001 28.531694 78.553131
v 0 30 70.013008
v 17.633562 -23.082624 78.553131
v 17.633556 23.08263 78.553131
v 18.541025 -24.270504 70.013008
v 18.541021 24.27051 70.013008
v 28.531694 -8.816774 78.553131
v 28.531694 8.81678 78.553131
v 30 -9.270504 70.013008
v 30 9.27051 70.013008
v 24.27051 -7.5 1.843994
v 15 -19.635258 1.843993
v 0 -24.270508 1.843993
v -15.000006 -19.635252 1.843993
v -24.270515 -7.5 1.843994
v -24.27051 7.500003 1.843995
v -15 19.635256 1.843997
v 0 24.27051 1.843997
v 15 19.635254 1.843997
v 24.27051 7.499997 1.843994
v 17.63356 -5.449069 0.000002
v 10.89814 -14.26585 0.000002
v 0 -17.63356 0.000002
v -10.89814 -14.265844 0.000002
v -17.63356 -5.449069 0.000002
v -17.63356 5.449071 0.000002
v -10.89814 14.26585 0.000002
v 0 17.633556 0.000007
v 10.89814 14.265844 0.000007
v 17.63356 5.449068 0.000002
v 9.27051 -2.864741 0.000005
v 5.72949 -7.499999 0.000005
v 0 -9.270509 0.000005
v -5.72949 -7.499999 0.000005
v -9.270515 -2.864741 0.000005
v -9.27051 2.864746 0.000005
v -5.72949 7.500001 0.000005
v 0 9.270512 0.000005
v 5.72949 7.500001 0.000005
v 9.27051 2.864743 0.000005
v 0 0.000001 0.000005
v -30 -9.270513 14.740202
v -30 9.270507 14.740202
v -28.5317 -8.81678 7.706499
v -28.531694 8.816783 7.7065
v -18.541019 -24.27051 14.740202
v -18.541025 24.270508 14.740202
v -17.63356 -23.082626 7.706497
v -17.63356 23.08263 7.706501
v 0.000004 -30 14.740202
v 0 -28.531694 7.706497
v 0 28.531694 7.706501
v 0 30 14.740202
v 17.63356 -23.082632 7.706497
v 17.63356 23.082623 7.706501
v 18.541025 -24.270504 14.740202
v 18.541021 24.27051 14.740202
v 28.531694 -8.81678 7.706499
v 28.531694 8.816774 7.7065
v 30 -9.270504 14.740202
v 30 9.27051 14.740202

# Number of normals: 142
vn 0.947329 0.320261 0
vn 0.572325 0.820027 0
vn 0 1 0
vn -0.572325 0.820027 0
vn -0.94733 0.32026 0
vn -0.947329 -0.320261 0
vn -0.572325 -0.820027 0
vn 0 -1 0
vn 0.572325 -0.820027 0
vn 0.94733 -0.32026 0
vn 0.947329 0.320261 0
vn 0.572325 0.820027 0
vn 0 1 0
vn -0.572325 0.820027 0
vn -0.94733 0.32026 0
vn -0.947329 -0.320261 0
vn -0.572325 -0.820027 0
vn 0 -1 0
vn 0.572325 -0.820027 0
vn 0.94733 -0.32026 0
vn 0.947329 0.320261 0
vn 0.572325 0.820027 0
vn 0 1 0
vn -0.572325 0.820027 0
vn -0.94733 0.32026 0
vn -0.947329 -0.320261 0
vn -0.572325 -0.820027 0
vn 0 -1 0
vn 0.572325 -0.820027 0
vn 0.94733 -0.32026 0
vn 0.947329 0.320261 0
vn 0.572325 0.820027 0
vn 0 1 0
vn -0.572325 0.820027 0
vn -0.94733 0.32026 0
vn -0.947329 -0.320261 0
vn -0.572325 -0.820027 0
vn 0 -1 0
vn 0.572325 -0.820027 0
vn 0.94733 -0.32026 0
vn 0.46382 0.157634 0.871793
vn 0.237997 0.378091 0.894653
vn 0 0.397864 0.917444
vn -0.237997 0.378091 0.894653
vn -0.410852 0.163098 0.896995
vn -0.46382 -0.157634 0.871793
vn -0.237997 -0.378091 0.894653
vn 0 -0.397864 0.917444
vn 0.237997 -0.378091 0.894653
vn 0.410852 -0.163098 0.896995
vn 0.027747 0.009494 0.99957
vn 0.013693 0.022668 0.999649
vn 0 0.022747 0.999741
vn -0.013693 0.022668 0.999649
vn -0.023924 0.010058 0.999663
vn -0.027747 -0.009494 0.99957
vn -0.013693 -0.022668 0.999649
vn 0 -0.022747 0.999741
vn 0.013693 -0.022668 0.999649
vn 0.023924 -0.010058 0.999663
vn 0 0 1
vn 0 0 1
vn 0 0 1
vn 0 0 1
vn 0 0 1
vn 0 0 1
vn 0 0 1
vn 0 0 1
vn 0 0 1
vn 0 0 1
vn 0 0 1
vn -0.958631 -0.270735 0.087913
vn -0.934296 0.347121 0.081224
vn -0.852036 -0.318785 0.415223
vn -0.867247 0.27945 0.412055
vn -0.608569 -0.788867 0.085635
vn -0.566996 0.81924 0.085805
vn -0.509159 -0.749945 0.422303
vn -0.509159 0.749945 0.422303
vn -0.023239 -0.995709 0.089572
vn 0 -0.893625 0.448815
vn 0 0.893625 0.448815
vn 0.023239 0.995709 0.089572
vn 0.50916 -0.749944 0.422303
vn 0.509159 0.749945 0.422303
vn 0.566996 -0.81924 0.085805
vn 0.608569 0.788867 0.085636
vn 0.867247 -0.27945 0.412056
vn 0.852036 0.318785 0.415223
vn 0.934296 -0.347121 0.081224
vn 0.958631 0.270735 0.087913
vn 0.566345 -0.19232 -0.801415
vn 0.309809 -0.476538 -0.822758
vn 0 -0.533305 -0.845923
vn -0.309809 -0.476538 -0.822758
vn -0.524902 -0.199153 -0.827536
vn -0.566345 0.192321 -0.801415
vn -0.309809 0.476538 -0.822758
vn 0 0.533306 -0.845923
vn 0.309809 0.476538 -0.822758
vn 0.524902 0.199153 -0.827536
vn 0.147675 -0.050521 -0.987745
vn 0.072671 -0.120456 -0.990055
vn 0 -0.120524 -0.99271
vn -0.072671 -0.120456 -0.990055
vn -0.127231 -0.053561 -0.990426
vn -0.147675 0.050521 -0.987745
vn -0.072671 0.120456 -0.990055
vn 0 0.120525 -0.99271
vn 0.072671 0.120456 -0.990055
vn 0.127231 0.053561 -0.990426
vn 0 0 -1
vn 0 0 -1
vn 0 0 -1
vn 0 0 -1
vn 0 0 -1
vn 0 0 -1
vn 0 0 -1
vn 0 0 -1
vn 0 0 -1
vn 0 0 -1
vn 0 0 -1
vn -0.93284 -0.34667 -0.09813
vn -0.956421 0.272308 -0.105388
vn -0.870689 -0.278869 -0.405133
vn -0.857071 0.317449 -0.405777
vn -0.563971 -0.819363 -0.102867
vn -0.60599 0.788818 -0.102674
vn -0.515831 -0.752002 -0.410379
vn -0.515831 0.752002 -0.41038
vn 0.023603 -0.993995 -0.106845
vn 0 -0.902957 -0.429732
vn 0 0.902957 -0.429732
vn -0.023603 0.993995 -0.106845
vn 0.515831 -0.752002 -0.410379
vn 0.515831 0.752002 -0.41038
vn 0.60599 -0.788818 -0.102674
vn 0.563971 0.819363 -0.102867
vn 0.857071 -0.317449 -0.405777
vn 0.870689 0.278869 -0.405133
vn 0.956421 -0.272308 -0.105389
vn 0.93284 0.34667 -0.09813

# Number of texture vertices: 158
vt 0.0477 0.33745
vt 1.0477 0.33745
vt 0.146174 0.333665
vt 0.25 0.331188
vt 0.353826 0.333665
vt 0.4523 0.33745
vt 0.5477 0.33745
vt 0.646174 0.333665
vt 0.75 0.331188
vt 0.853826 0.333665
vt 0.9523 0.33745
vt 0.0477 0.443908
vt 1.0477 0.443908
vt 0.146174 0.442367
vt 0.25 0.441349
vt 0.353826 0.442367
vt 0.4523 0.443908
vt 0.5477 0.443908
vt 0.646174 0.442367
vt 0.75 0.441349
vt 0.853826 0.442367
vt 0.9523 0.443908
vt 0.0477 0.564088
vt 1.0477 0.564088
vt 0.146174 0.565837
vt 0.25 0.566993
vt 0.353826 0.565837
vt 0.4523 0.564088
vt 0.5477 0.564088
vt 0.646174 0.565837
vt 0.75 0.566993
vt 0.853826 0.565837
vt 0.9523 0.564088
vt 0.0477 0.668789
vt 1.0477 0.668789
vt 0.146174 0.67266
vt 0.25 0.675191
vt 0.353826 0.67266
vt 0.4523 0.668789
vt 0.5477 0.668789
vt 0.646174 0.67266
vt 0.75 0.675191
vt 0.853826 0.67266
vt 0.9523 0.668789
vt 0.0477 0.837097
vt 1.0477 0.837097
vt 0.146174 0.840832
vt 0.25 0.84322
vt 0.353826 0.840832
vt 0.4523 0.837097
vt 0.5477 0.837097
vt 0.646174 0.840832
vt 0.75 0.84322
vt 0.853826 0.840832
vt 0.9523 0.837097
vt 0.0477 0.877562
vt 1.0477 0.877562
vt 0.146174 0.880597
vt 0.25 0.882528
vt 0.353826 0.880597
vt 0.4523 0.877562
vt 0.5477 0.877562
vt 0.646174 0.880597
vt 0.75 0.882528
vt 0.853826 0.880597
vt 0.9523 0.877562
vt 0.0477 0.933252
vt 1.0477 0.933252
vt 0.146174 0.935024
vt 0.25 0.936147
vt 0.353826 0.935024
vt 0.4523 0.933252
vt 0.5477 0.933252
vt 0.646174 0.935024
vt 0.75 0.936147
vt 0.853826 0.935024
vt 0.9523 0.933252
vt 0.5 1
vt 1.5 1
vt 0.5477 0.744897
vt 0.4523 0.744897
vt 0.5477 0.794637
vt 0.4523 0.794637
vt 0.646174 0.749303
vt 0.353826 0.749303
vt 0.646174 0.798855
vt 0.353826 0.798855
vt 0.75 0.752154
vt 0.75 0.801565
vt 0.25 0.801565
vt 0.25 0.752154
vt 0.853826 0.798855
vt 0.146174 0.798855
vt 0.853826 0.749303
vt 0.146174 0.749303
vt 0.9523 0.794637
vt 0.0477 0.794637
vt 1.0477 0.794637
vt 0.9523 0.744897
vt 0.0477 0.744897
vt 1.0477 0.744897
vt 0.9523 0.167956
vt 0.853826 0.164148
vt 0.75 0.161714
vt 0.646174 0.164148
vt 0.5477 0.167956
vt 0.4523 0.167956
vt 0.353826 0.164148
vt 0.25 0.161714
vt 0.146174 0.164148
vt 0.0477 0.167956
vt 1.0477 0.167956
vt 0.9523 0.122438
vt 0.853826 0.119403
vt 0.75 0.117472
vt 0.646174 0.119403
vt 0.5477 0.122438
vt 0.4523 0.122438
vt 0.353826 0.119403
vt 0.25 0.117472
vt 0.146174 0.119403
vt 0.0477 0.122438
vt 1.0477 0.122438
vt 0.9523 0.066748
vt 0.853826 0.064976
vt 0.75 0.063853
vt 0.646174 0.064976
vt 0.5477 0.066748
vt 0.4523 0.066748
vt 0.353826 0.064976
vt 0.25 0.063853
vt 0.146174 0.064976
vt 0.0477 0.066748
vt 1.0477 0.066748
vt 1.25 0
vt 0.25 0
vt 0.5477 0.259436
vt 0.4523 0.259436
vt 0.5477 0.215203
vt 0.4523 0.215203
vt 0.646174 0.255034
vt 0.353826 0.255034
vt 0.646174 0.210914
vt 0.353826 0.210914
vt 0.75 0.252184
vt 0.75 0.208155
vt 0.25 0.208155
vt 0.25 0.252184
vt 0.853826 0.210914
vt 0.146174 0.210914
vt 0.853826 0.255034
vt 0.146174 0.255034
vt 0.9523 0.215203
vt 0.0477 0.215203
vt 1.0477 0.215203
vt 0.9523 0.259436
vt 0.0477 0.259436
vt 1.0477 0.259436

g Vertex_Object 
usemtl Texture_0
# Number of Polygons: 100
f 89/97/89 85/93/85 42/47/42 41/45/41 
f 85/93/85 82/90/82 43/48/43 42/47/42 
f 82/90/82 79/87/79 44/49/44 43/48/43 
f 79/87/79 75/83/75 45/50/45 44/49/44 
f 75/83/75 74/82/74 46/51/46 45/50/45 
f 74/82/74 78/86/78 47/52/47 46/51/46 
f 78/86/78 81/89/81 48/53/48 47/52/47 
f 81/89/81 84/92/84 49/54/49 48/53/48 
f 84/92/84 88/96/88 50/55/50 49/54/49 
f 88/96/88 89/98/89 41/46/41 50/55/50 
f 41/45/41 42/47/42 52/58/52 51/56/51 
f 42/47/42 43/48/43 53/59/53 52/58/52 
f 43/48/43 44/49/44 54/60/54 53/59/53 
f 44/49/44 45/50/45 55/61/55 54/60/54 
f 45/50/45 46/51/46 56/62/56 55/61/55 
f 46/51/46 47/52/47 57/63/57 56/62/56 
f 47/52/47 48/53/48 58/64/58 57/63/57 
f 48/53/48 49/54/49 59/65/59 58/64/58 
f 49/54/49 50/55/50 60/66/60 59/65/59 
f 50/55/50 41/46/41 51/57/51 60/66/60 
f 51/56/51 52/58/52 62/69/62 61/67/61 
f 52/58/52 53/59/53 63/70/63 62/69/62 
f 53/59/53 54/60/54 64/71/64 63/70/63 
f 54/60/54 55/61/55 65/72/65 64/71/64 
f 55/61/55 56/62/56 66/73/66 65/72/65 
f 56/62/56 57/63/57 67/74/67 66/73/66 
f 57/63/57 58/64/58 68/75/68 67/74/67 
f 58/64/58 59/65/59 69/76/69 68/75/68 
f 59/65/59 60/66/60 70/77/70 69/76/69 
f 60/66/60 51/57/51 61/68/61 70/77/70 
f 71/78/71 61/67/61 62/69/62 
f 71/78/71 62/69/62 63/70/63 
f 71/78/71 63/70/63 64/71/64 
f 71/78/71 64/71/64 65/72/65 
f 71/78/71 65/72/65 66/73/66 
f 71/78/71 66/73/66 67/74/67 
f 71/78/71 67/74/67 68/75/68 
f 71/78/71 68/75/68 69/76/69 
f 71/78/71 69/76/69 70/77/70 
f 71/79/71 70/77/70 61/68/61 
f 88/96/88 90/99/90 91/101/91 89/98/89 
f 89/97/89 91/100/91 87/95/87 85/93/85 
f 85/93/85 87/95/87 83/91/83 82/90/82 
f 82/90/82 83/91/83 77/85/77 79/87/79 
f 79/87/79 77/85/77 73/81/73 75/83/75 
f 75/83/75 73/81/73 72/80/72 74/82/74 
f 74/82/74 72/80/72 76/84/76 78/86/78 
f 78/86/78 76/84/76 80/88/80 81/89/81 
f 81/89/81 80/88/80 86/94/86 84/92/84 
f 84/92/84 86/94/86 90/99/90 88/96/88 
f 139/153/139 135/149/135 93/103/93 92/102/92 
f 135/149/135 132/146/132 94/104/94 93/103/93 
f 132/146/132 129/143/129 95/105/95 94/104/94 
f 129/143/129 125/139/125 96/106/96 95/105/95 
f 125/139/125 126/140/126 97/107/97 96/106/96 
f 126/140/126 130/144/130 98/108/98 97/107/97 
f 130/144/130 133/147/133 99/109/99 98/108/98 
f 133/147/133 136/150/136 100/110/100 99/109/99 
f 136/150/136 140/154/140 101/111/101 100/110/100 
f 140/155/140 139/153/139 92/102/92 101/112/101 
f 92/102/92 93/103/93 103/114/103 102/113/102 
f 93/103/93 94/104/94 104/115/104 103/114/103 
f 94/104/94 95/105/95 105/116/105 104/115/104 
f 95/105/95 96/106/96 106/117/106 105/116/105 
f 96/106/96 97/107/97 107/118/107 106/117/106 
f 97/107/97 98/108/98 108/119/108 107/118/107 
f 98/108/98 99/109/99 109/120/109 108/119/108 
f 99/109/99 100/110/100 110/121/110 109/120/109 
f 100/110/100 101/111/101 111/122/111 110/121/110 
f 101/112/101 92/102/92 102/113/102 111/123/111 
f 102/113/102 103/114/103 113/125/113 112/124/112 
f 103/114/103 104/115/104 114/126/114 113/125/113 
f 104/115/104 105/116/105 115/127/115 114/126/114 
f 105/116/105 106/117/106 116/128/116 115/127/115 
f 106/117/106 107/118/107 117/129/117 116/128/116 
f 107/118/107 108/119/108 118/130/118 117/129/117 
f 108/119/108 109/120/109 119/131/119 118/130/118 
f 109/120/109 110/121/110 120/132/120 119/131/119 
f 110/121/110 111/122/111 121/133/121 120/132/120 
f 111/123/111 102/113/102 112/124/112 121/134/121 
f 122/135/122 112/124/112 113/125/113 
f 122/135/122 113/125/113 114/126/114 
f 122/135/122 114/126/114 115/127/115 
f 122/136/122 115/127/115 116/128/116 
f 122/136/122 116/128/116 117/129/117 
f 122/136/122 117/129/117 118/130/118 
f 122/136/122 118/130/118 119/131/119 
f 122/136/122 119/131/119 120/132/120 
f 122/136/122 120/132/120 121/133/121 
f 122/135/122 121/134/121 112/124/112 
f 135/149/135 137/151/137 131/145/131 132/146/132 
f 132/146/132 131/145/131 127/141/127 129/143/129 
f 129/143/129 127/141/127 123/137/123 125/139/125 
f 125/139/125 123/137/123 124/138/124 126/140/126 
f 126/140/126 124/138/124 128/142/128 130/144/130 
f 130/144/130 128/142/128 134/148/134 133/147/133 
f 133/147/133 134/148/134 138/152/138 136/150/136 
f 136/150/136 138/152/138 142/157/142 140/154/140 
f 140/155/140 142/158/142 141/156/141 139/153/139 
f 139/153/139 141/156/141 137/151/137 135/149/135 
g cyl 
usemtl Texture_0
# Number of Polygons: 50
f 142/157/142 138/152/138 2/3/2 1/1/1 
f 138/152/138 134/148/134 3/4/3 2/3/2 
f 134/148/134 128/142/128 4/5/4 3/4/3 
f 128/142/128 124/138/124 5/6/5 4/5/4 
f 124/138/124 123/137/123 6/7/6 5/6/5 
f 123/137/123 127/141/127 7/8/7 6/7/6 
f 127/141/127 131/145/131 8/9/8 7/8/7 
f 131/145/131 137/151/137 9/10/9 8/9/8 
f 137/151/137 141/156/141 10/11/10 9/10/9 
f 141/156/141 142/158/142 1/2/1 10/11/10 
f 1/1/1 2/3/2 12/14/12 11/12/11 
f 2/3/2 3/4/3 13/15/13 12/14/12 
f 3/4/3 4/5/4 14/16/14 13/15/13 
f 4/5/4 5/6/5 15/17/15 14/16/14 
f 5/6/5 6/7/6 16/18/16 15/17/15 
f 6/7/6 7/8/7 17/19/17 16/18/16 
f 7/8/7 8/9/8 18/20/18 17/19/17 
f 8/9/8 9/10/9 19/21/19 18/20/18 
f 9/10/9 10/11/10 20/22/20 19/21/19 
f 10/11/10 1/2/1 11/13/11 20/22/20 
f 11/12/11 12/14/12 22/25/22 21/23/21 
f 12/14/12 13/15/13 23/26/23 22/25/22 
f 13/15/13 14/16/14 24/27/24 23/26/23 
f 14/16/14 15/17/15 25/28/25 24/27/24 
f 15/17/15 16/18/16 26/29/26 25/28/25 
f 16/18/16 17/19/17 27/30/27 26/29/26 
f 17/19/17 18/20/18 28/31/28 27/30/27 
f 18/20/18 19/21/19 29/32/29 28/31/28 
f 19/21/19 20/22/20 30/33/30 29/32/29 
f 20/22/20 11/13/11 21/24/21 30/33/30 
f 21/23/21 22/25/22 32/36/32 31/34/31 
f 22/25/22 23/26/23 33/37/33 32/36/32 
f 23/26/23 24/27/24 34/38/34 33/37/33 
f 24/27/24 25/28/25 35/39/35 34/38/34 
f 25/28/25 26/29/26 36/40/36 35/39/35 
f 26/29/26 27/30/27 37/41/37 36/40/36 
f 27/30/27 28/31/28 38/42/38 37/41/37 
f 28/31/28 29/32/29 39/43/39 38/42/38 
f 29/32/29 30/33/30 40/44/40 39/43/39 
f 30/33/30 21/24/21 31/35/31 40/44/40 
f 31/34/31 32/36/32 87/95/87 91/100/91 
f 32/36/32 33/37/33 83/91/83 87/95/87 
f 33/37/33 34/38/34 77/85/77 83/91/83 
f 34/38/34 35/39/35 73/81/73 77/85/77 
f 35/39/35 36/40/36 72/80/72 73/81/73 
f 36/40/36 37/41/37 76/84/76 72/80/72 
f 37/41/37 38/42/38 80/88/80 76/84/76 
f 38/42/38 39/43/39 86/94/86 80/88/80 
f 39/43/39 40/44/40 90/99/90 86/94/86 
f 40/44/40 31/35/31 91/101/91 90/99/90 
