# Alias OBJ Model File
# Exported from SketchUp, (c) 2000-2012 Trimble Navigation Limited
# File units = millimeters

mtllib bar_racket_1x3cubes.mtl

g Mesh1 Model

usemtl FrontColor
v 500 0 500
vt 19.685 19.685
vn 0 -1 0
v 0 0 0
vt 0 0
v 500 0 0
vt 19.685 0
f 1/1/1 2/2/1 3/3/1

v 0 0 500
vt 0 19.685
f 2/2/1 1/1/1 4/4/1

usemtl BackColor
vn -0 1 -0
f 3/3/2 2/2/2 1/1/2

usemtl FrontColor
vn 0 0 1
v 0 500 0
f 3/3/3 5/4/3 2/2/3

v 500 500 0
f 5/4/3 3/3/3 6/1/3

usemtl BackColor
vn -0 -0 -1
f 2/2/4 5/4/4 3/3/4

usemtl FrontColor
vn -1 0 0
v 0 500 500
vt -19.685 19.685
vt -19.685 0
f 2/2/5 7/5/5 5/6/5

f 7/5/5 2/2/5 4/4/5

usemtl BackColor
vn 1 -0 -0
f 4/4/6 2/2/6 7/5/6

f 4/4/2 1/1/2 2/2/2

usemtl FrontColor
f 1/3/3 7/4/3 4/2/3

v 500 500 500
f 7/4/3 1/3/3 8/1/3

usemtl BackColor
f 4/2/4 7/4/4 1/3/4

f 8/1/4 1/3/4 7/4/4

usemtl FrontColor
vn 1 0 0
f 1/4/7 6/3/7 8/1/7

f 6/3/7 1/4/7 3/2/7

usemtl BackColor
vn -1 -0 -0
f 3/2/8 1/4/8 6/3/8

usemtl FrontColor
v 1000 0 500
vt 39.3701 19.685
f 3/3/1 9/7/1 1/1/1

v 1000 0 0
vt 39.3701 0
f 9/7/1 3/3/1 10/8/1

usemtl BackColor
f 10/8/2 3/3/2 9/7/2

usemtl FrontColor
vn 0 0 -1
v 1000 500 0
vt -39.3701 19.685
vt -39.3701 0
f 3/6/9 11/9/9 10/10/9

f 11/9/9 3/6/9 6/5/9

usemtl BackColor
vn -0 -0 1
f 6/5/10 3/6/10 11/9/10

f 6/1/4 3/3/4 5/4/4

usemtl FrontColor
vn 0 1 0
f 7/4/11 6/6/11 5/2/11

f 6/6/11 7/4/11 8/5/11

usemtl BackColor
vn -0 -1 -0
f 5/2/12 6/6/12 7/4/12

f 8/5/12 7/4/12 6/6/12

f 8/1/8 6/3/8 1/4/8

usemtl FrontColor
f 8/5/11 11/10/11 6/6/11

v 1000 500 500
f 11/10/11 8/5/11 12/9/11

usemtl BackColor
f 6/6/12 11/10/12 8/5/12

f 12/9/12 8/5/12 11/10/12

usemtl FrontColor
f 8/1/3 9/8/3 12/7/3

f 9/8/3 8/1/3 1/3/3

usemtl BackColor
f 1/3/4 8/1/4 9/8/4

f 12/7/4 9/8/4 8/1/4

usemtl FrontColor
f 9/4/7 11/3/7 12/1/7

f 11/3/7 9/4/7 10/2/7

usemtl BackColor
f 10/2/8 9/4/8 11/3/8

usemtl FrontColor
v 1500 0 500
vt 59.0551 19.685
f 10/8/1 13/11/1 9/7/1

v 1500 0 0
vt 59.0551 0
f 13/11/1 10/8/1 14/12/1

usemtl BackColor
f 14/12/2 10/8/2 13/11/2

usemtl FrontColor
v 1500 500 0
vt -59.0551 19.685
vt -59.0551 0
f 10/10/9 15/13/9 14/14/9

f 15/13/9 10/10/9 11/9/9

usemtl BackColor
f 11/9/10 10/10/10 15/13/10

f 10/10/10 11/9/10 3/6/10

f 14/14/10 15/13/10 10/10/10

usemtl FrontColor
f 15/3/7 13/4/7 14/2/7

v 1500 500 500
f 13/4/7 15/3/7 16/1/7

usemtl BackColor
f 14/2/8 13/4/8 15/3/8

f 16/1/8 15/3/8 13/4/8

usemtl FrontColor
f 15/14/11 12/9/11 16/13/11

f 12/9/11 15/14/11 11/10/11

usemtl BackColor
f 11/10/12 15/14/12 12/9/12

f 16/13/12 12/9/12 15/14/12

usemtl FrontColor
f 12/7/3 13/12/3 16/11/3

f 13/12/3 12/7/3 9/8/3

usemtl BackColor
f 9/8/4 12/7/4 13/12/4

f 12/1/8 11/3/8 9/4/8

f 16/11/4 13/12/4 12/7/4

f 9/7/2 13/11/2 10/8/2

f 1/1/2 9/7/2 3/3/2

f 5/6/6 7/5/6 2/2/6

g Mesh2 Model

l 5 2

l 6 5

l 3 6

l 3 10

l 3 1

l 2 3

l 2 4

l 4 1

l 7 4

l 8 7

l 1 8

l 1 9

l 9 13

l 10 9

l 10 11

l 10 14

l 14 15

l 14 13

l 13 16

l 15 16

l 11 15

l 11 12

l 6 11

l 6 8

l 8 12

l 9 12

l 12 16

l 5 7

