# Alias OBJ Model File
# Exported from SketchUp, (c) 2000-2012 Trimble Navigation Limited
# File units = millimeters

mtllib sketchup_model_test1.mtl

g Mesh1 Model

usemtl FrontColor
v 893 938.3 0
vt -35.1575 36.9409
vn 0 0 -1
v 0 0 0
vt 0 0
v 0 938.3 0
vt 0 36.9409
f 1/1/1 2/2/1 3/3/1

v 893 0 0
vt -35.1575 0
f 2/2/1 1/1/1 4/4/1

usemtl Brick_Antique
vt 0.636913 -0.528731
vn 0.830887 3.03979e-17 0.556441
v 348.27 591.129 813.4
vt 0.401255 0.51293
vt -2.21764e-17 -0.528731
f 1/5/2 5/6/2 4/7/2

v 348.27 938.3 813.4
vt 0.636913 0.51293
f 5/6/2 1/5/2 6/8/2

vt -0.606163 -4.43053e-16
vn 3.54009e-32 1 4.43762e-16
v 0 938.3 813.4
vt 2.25473e-32 0.865503
vt -0.236404 0.865503
f 1/9/3 7/10/3 6/11/3

vt 2.25473e-32 -4.43053e-16
f 7/10/3 1/9/3 3/12/3

vt -0.636913 0
vn -1 0 0
v 0 591.129 813.4
vt -0.401255 0.865503
vt -0.636913 0.865503
f 3/13/4 8/14/4 7/15/4

f 8/14/4 3/13/4 2/2/4

vn 3.22427e-17 -0.808942 0.587889
vt 0.236404 1.06992
vt 1.59932e-17 1.06992
f 2/2/5 5/16/5 8/17/5

vt 0.606163 -2.22651e-17
f 5/16/5 2/2/5 4/18/5

vt 0.236404 0.628994
vn 0 0 1
vt 0 0.998404
vt 0 0.628994
f 5/19/6 7/20/6 8/21/6

vt 0.236404 0.998404
f 7/20/6 5/19/6 6/22/6

