# Blender OBJ File: /home/william/Documents/Blender/alphabet.blend
# www.blender.org
#StarLogoCommand ComputeNormals
mtllib a.mtl
o Font.001_Mesh
v 0.217913031578 2.01600027084 1.20119929314
v -0.196087002754 2.01600027084 1.20119929314
v -1.95408713818 -2.09999990463 1.20119929314
v -1.35408711433 -2.09999990463 1.20119929314
v -0.838087081909 -0.893999814987 1.20119929314
v 0.901912808418 -0.893999814987 1.20119929314
v 1.44791305065 -2.09999990463 1.20119929314
v 2.04791307449 -2.09999990463 1.20119929314
v 0.00191295146942 1.11600017548 1.20119929314
v 0.6619130373 -0.365999937057 1.20119929314
v -0.610087037086 -0.365999937057 1.20119929314
v -0.610087037086 -0.365999937057 0.0
v 0.6619130373 -0.365999937057 0.0
v 0.00191295146942 1.11600017548 0.0
v 2.04791307449 -2.09999990463 0.0
v 1.44791305065 -2.09999990463 0.0
v 0.901912808418 -0.893999814987 0.0
v -0.838087081909 -0.893999814987 0.0
v -1.35408711433 -2.09999990463 0.0
v -1.95408713818 -2.09999990463 0.0
v -0.196087002754 2.01600027084 0.0
v 0.217913031578 2.01600027084 0.0
vt 0.0 0.0 0.0
vt 0.0 0.0 0.0
vt 0.0 0.0 0.0
vt 0.0 0.0 0.0
vt 0.0 0.0 0.0
vt 0.0 0.0 0.0
vt 0.0 0.0 0.0
vt 0.0 0.0 0.0
vt 0.0 0.0 0.0
vt 0.0 0.0 0.0
vt 0.0 0.0 0.0
vt 0.0 0.0 0.0
vt 0.0 0.0 0.0
vt 0.0 0.0 0.0
vt 0.0 0.0 0.0
vt 0.0 0.0 0.0
vt 0.0 0.0 0.0
vt 0.0 0.0 0.0
vt 0.0 0.0 0.0
vt 0.0 0.0 0.0
vt 0.0 0.0 0.0
vt 0.0 0.0 0.0
vt 0.0 0.0 0.0
vt 0.0 0.0 0.0
vt 0.0 0.0 0.0
vt 0.0 0.0 0.0
vt 0.0 0.0 0.0
vt 0.0 0.0 0.0
vt 0.0 0.0 0.0
vt 0.0 0.0 0.0
vt 0.0 0.0 0.0
vt 0.0 0.0 0.0
vt 0.0 0.0 0.0
vt 0.0 0.0 0.0
vt 0.0 0.0 0.0
vt 0.0 0.0 0.0
vt 0.0 0.0 0.0
vt 0.0 0.0 0.0
vt 0.0 0.0 0.0
vt 0.0 0.0 0.0
vt 0.0 0.0 0.0
vt 0.0 0.0 0.0
vt 0.0 0.0 0.0
vt 0.0 0.0 0.0
vt 0.0 0.0 0.0
vt 0.0 0.0 0.0
vt 0.0 0.0 0.0
vt 0.0 0.0 0.0
vt 0.0 0.0 0.0
vt 0.0 0.0 0.0
vt 0.0 0.0 0.0
vt 0.0 0.0 0.0
vt 0.0 0.0 0.0
vt 0.0 0.0 0.0
vt 0.0 0.0 0.0
vt 0.0 0.0 0.0
vt 0.0 0.0 0.0
vt 0.0 0.0 0.0
vt 0.0 0.0 0.0
vt 0.0 0.0 0.0
vt 0.0 0.0 0.0
vt 0.0 0.0 0.0
vt 0.0 0.0 0.0
vt 0.0 0.0 0.0
vt 0.0 0.0 0.0
vt 0.0 0.0 0.0
vt 0.0 0.0 0.0
vt 0.0 0.0 0.0
vt 0.0 0.0 0.0
vt 0.0 0.0 0.0
vt 0.0 0.0 0.0
vt 0.0 0.0 0.0
vt 0.0 0.0 0.0
vt 0.0 0.0 0.0
vt 0.0 0.0 0.0
vt 0.0 0.0 0.0
vt 0.0 0.0 0.0
vt 0.0 0.0 0.0
vt 0.0 0.0 0.0
vt 0.0 0.0 0.0
vt 0.0 0.0 0.0
vt 0.0 0.0 0.0
vt 0.0 0.0 0.0
vt 0.0 0.0 0.0
vt 0.0 0.0 0.0
vt 0.0 0.0 0.0
vt 0.0 0.0 0.0
vt 0.0 0.0 0.0
vt 0.0 0.0 0.0
vt 0.0 0.0 0.0
vt 0.0 0.0 0.0
vt 0.0 0.0 0.0
vt 0.0 0.0 0.0
vt 0.0 0.0 0.0
vt 0.0 0.0 0.0
vt 0.0 0.0 0.0
vt 0.0 0.0 0.0
vt 0.0 0.0 0.0
vt 0.0 0.0 0.0
vt 0.0 0.0 0.0
vt 0.0 0.0 0.0
vt 0.0 0.0 0.0
vt 0.0 0.0 0.0
vt 0.0 0.0 0.0
vt 0.0 0.0 0.0
vt 0.0 0.0 0.0
vt 0.0 0.0 0.0
vt 0.0 0.0 0.0
vt 0.0 0.0 0.0
vt 0.0 0.0 0.0
vn 0.499178975821 0.76824003458 0.400783717632
vn -0.284193813801 -0.440634697676 0.851513326168
vn -0.432366520166 -0.670355737209 0.60306084156
vn 0.439898580313 -0.666714608669 0.601648449898
vn 0.286332905293 -0.433985680342 0.854207158089
vn -0.503382086754 0.762367069721 0.406697541475
vn 0.499178975821 0.76824003458 0.400783717632
vn -0.248762622476 -0.383108466864 0.889575779438
vn -0.284193813801 -0.440634697676 0.851513326168
vn -0.284193813801 -0.440634697676 0.851513326168
vn -0.248762622476 -0.383108466864 0.889575779438
vn 0.286332905293 -0.433985680342 0.854207158089
vn -0.248762622476 -0.383108466864 0.889575779438
vn 0.253215521574 -0.37855681777 0.890267670155
vn 0.286332905293 -0.433985680342 0.854207158089
vn 0.286332905293 -0.433985680342 0.854207158089
vn 0.253215521574 -0.37855681777 0.890267670155
vn -0.503382086754 0.762367069721 0.406697541475
vn 0.499178975821 0.76824003458 0.400783717632
vn 0.466545522213 0.00637849280611 0.884474158287
vn -0.248762622476 -0.383108466864 0.889575779438
vn 0.253215521574 -0.37855681777 0.890267670155
vn 0.466545522213 0.00637849280611 0.884474158287
vn -0.503382086754 0.762367069721 0.406697541475
vn 0.499178975821 0.76824003458 0.400783717632
vn 0.434805452824 0.669192075729 0.602599442005
vn 0.466545522213 0.00637849280611 0.884474158287
vn 0.466545522213 0.00637849280611 0.884474158287
vn 0.434805452824 0.669192075729 0.602599442005
vn -0.503382086754 0.762367069721 0.406697541475
vn 0.434805452824 0.669192075729 0.602599442005
vn -0.440147429705 0.66659963131 0.601593792439
vn -0.503382086754 0.762367069721 0.406697541475
vn -0.440147429705 0.66659963131 -0.601593792439
vn -0.503382086754 0.762367069721 -0.406697541475
vn -0.503382086754 0.762367069721 0.406697541475
vn -0.440147429705 0.66659963131 0.601593792439
vn -0.440147429705 0.66659963131 0.601593792439
vn 0.434805452824 0.669192075729 0.602599442005
vn 0.434805452824 0.669192075729 -0.602599442005
vn -0.440147429705 0.66659963131 -0.601593792439
vn 0.434805452824 0.669192075729 0.602599442005
vn 0.499178975821 0.76824003458 0.400783717632
vn 0.499178975821 0.76824003458 -0.400783717632
vn 0.434805452824 0.669192075729 -0.602599442005
vn 0.253215521574 -0.37855681777 -0.890267670155
vn 0.466545522213 0.00637849280611 -0.884474158287
vn 0.466545522213 0.00637849280611 0.884474158287
vn 0.253215521574 -0.37855681777 0.890267670155
vn 0.466545522213 0.00637849280611 -0.884474158287
vn -0.248762622476 -0.383108466864 -0.889575779438
vn -0.248762622476 -0.383108466864 0.889575779438
vn 0.466545522213 0.00637849280611 0.884474158287
vn -0.248762622476 -0.383108466864 -0.889575779438
vn 0.253215521574 -0.37855681777 -0.890267670155
vn 0.253215521574 -0.37855681777 0.890267670155
vn -0.248762622476 -0.383108466864 0.889575779438
vn 0.286332905293 -0.433985680342 -0.854207158089
vn -0.284193813801 -0.440634697676 -0.851513326168
vn -0.284193813801 -0.440634697676 0.851513326168
vn 0.286332905293 -0.433985680342 0.854207158089
vn 0.439898580313 -0.666714608669 -0.601648449898
vn 0.286332905293 -0.433985680342 -0.854207158089
vn 0.286332905293 -0.433985680342 0.854207158089
vn 0.439898580313 -0.666714608669 0.601648449898
vn -0.503382086754 0.762367069721 -0.406697541475
vn 0.439898580313 -0.666714608669 -0.601648449898
vn 0.439898580313 -0.666714608669 0.601648449898
vn -0.503382086754 0.762367069721 0.406697541475
vn -0.284193813801 -0.440634697676 -0.851513326168
vn -0.432366520166 -0.670355737209 -0.60306084156
vn -0.432366520166 -0.670355737209 0.60306084156
vn -0.284193813801 -0.440634697676 0.851513326168
vn -0.432366520166 -0.670355737209 -0.60306084156
vn 0.499178975821 0.76824003458 -0.400783717632
vn 0.499178975821 0.76824003458 0.400783717632
vn -0.432366520166 -0.670355737209 0.60306084156
vn -0.432366520166 -0.670355737209 -0.60306084156
vn -0.284193813801 -0.440634697676 -0.851513326168
vn 0.499178975821 0.76824003458 -0.400783717632
vn -0.503382086754 0.762367069721 -0.406697541475
vn 0.286332905293 -0.433985680342 -0.854207158089
vn 0.439898580313 -0.666714608669 -0.601648449898
vn -0.284193813801 -0.440634697676 -0.851513326168
vn -0.248762622476 -0.383108466864 -0.889575779438
vn 0.499178975821 0.76824003458 -0.400783717632
vn 0.286332905293 -0.433985680342 -0.854207158089
vn -0.248762622476 -0.383108466864 -0.889575779438
vn -0.284193813801 -0.440634697676 -0.851513326168
vn 0.286332905293 -0.433985680342 -0.854207158089
vn 0.253215521574 -0.37855681777 -0.890267670155
vn -0.248762622476 -0.383108466864 -0.889575779438
vn -0.503382086754 0.762367069721 -0.406697541475
vn 0.253215521574 -0.37855681777 -0.890267670155
vn 0.286332905293 -0.433985680342 -0.854207158089
vn -0.248762622476 -0.383108466864 -0.889575779438
vn 0.466545522213 0.00637849280611 -0.884474158287
vn 0.499178975821 0.76824003458 -0.400783717632
vn -0.503382086754 0.762367069721 -0.406697541475
vn 0.466545522213 0.00637849280611 -0.884474158287
vn 0.253215521574 -0.37855681777 -0.890267670155
vn 0.466545522213 0.00637849280611 -0.884474158287
vn 0.434805452824 0.669192075729 -0.602599442005
vn 0.499178975821 0.76824003458 -0.400783717632
vn -0.503382086754 0.762367069721 -0.406697541475
vn 0.434805452824 0.669192075729 -0.602599442005
vn 0.466545522213 0.00637849280611 -0.884474158287
vn -0.503382086754 0.762367069721 -0.406697541475
vn -0.440147429705 0.66659963131 -0.601593792439
vn 0.434805452824 0.669192075729 -0.602599442005
f 8/1/1 6/2/2 7/3/3 
f 4/4/4 5/5/5 3/6/6 
f 8/7/7 10/8/8 6/9/9 
f 6/10/10 10/11/11 5/12/12 
f 10/13/13 11/14/14 5/15/15 
f 5/16/16 11/17/17 3/18/18 
f 8/19/19 9/20/20 10/21/21 
f 11/22/22 9/23/23 3/24/24 
f 8/25/25 1/26/26 9/27/27 
f 9/28/28 1/29/29 3/30/30 
f 1/31/31 2/32/32 3/33/33 
f 21/34/34 20/35/35 3/36/36 2/37/37 
f 2/38/38 1/39/39 22/40/40 21/41/41 
f 1/42/42 8/43/43 15/44/44 22/45/45 
f 12/46/46 14/47/47 9/48/48 11/49/49 
f 14/50/50 13/51/51 10/52/52 9/53/53 
f 13/54/54 12/55/55 11/56/56 10/57/57 
f 18/58/58 17/59/59 6/60/60 5/61/61 
f 19/62/62 18/63/63 5/64/64 4/65/65 
f 20/66/66 19/67/67 4/68/68 3/69/69 
f 17/70/70 16/71/71 7/72/72 6/73/73 
f 16/74/74 15/75/75 8/76/76 7/77/77 
f 16/78/78 17/79/79 15/80/80 
f 20/81/81 18/82/82 19/83/83 
f 17/84/84 13/85/85 15/86/86 
f 18/87/87 13/88/88 17/89/89 
f 18/90/90 12/91/91 13/92/92 
f 20/93/93 12/94/94 18/95/95 
f 13/96/96 14/97/97 15/98/98 
f 20/99/99 14/100/100 12/101/101 
f 14/102/102 22/103/103 15/104/104 
f 20/105/105 22/106/106 14/107/107 
f 20/108/108 21/109/109 22/110/110 
