v 1.9 1.7 -1.9
v 1.9 -2.1 -1.9
v -1.9 -2.1 -1.9
v -1.9 1.7 -1.9
v 1.9 1.7 1.9
v -1.9 1.7 1.9
v -1.9 -2.1 1.9
v 1.9 -2.1 1.9
v 1.89757 1.7 -1.89757
v -1.89757 1.7 -1.89757
v 1.89757 1.7 1.89757
v -1.89757 1.7 1.89757
v 1.89692 1.69692 1.9
v -1.89692 1.69692 1.9
v -1.89692 -2.09692 1.9
v 1.89692 -2.09692 1.9
v -1.9 -2.09767 -1.89767
v -1.9 1.69767 -1.89767
v -1.9 1.69767 1.89767
v -1.9 -2.09767 1.89767
v 1.9 1.69587 -1.89587
v 1.9 -2.09587 -1.89587
v 1.9 1.69587 1.89587
v 1.9 -2.09587 1.89587
v 1.89707 -2.1 -1.89707
v -1.89707 -2.1 -1.89707
v -1.89707 -2.1 1.89707
v 1.89707 -2.1 1.89707
v 1.89704 1.69704 -1.9
v 1.89704 -2.09704 -1.9
v -1.89704 -2.09703 -1.9
v -1.89703 1.69704 -1.9
vn 0.242493 0 -0.969971
vn 4.01226e-09 -0.242493 -0.969971
vn 4.01226e-09 -0.242493 -0.969971
vn -0.242493 0 -0.969971
vn 0.969971 -2.59067e-07 0.242493
vn -0.969971 1.02178e-07 0.242493
vn -0.242493 -0.969971 -2.07174e-05
vn 0.242492 -0.969971 -2.09122e-05
vn 1.80535e-07 0.999756 -1.27495e-05
vn 1.80535e-07 0.999756 -1.27798e-05
vn 1.96227e-07 0.999756 1.31176e-05
vn 1.96227e-07 0.999756 1.30872e-05
vn 1.01884e-05 0 0.999756
vn -1.06074e-08 0 0.999756
vn -1.06071e-08 0 0.999756
vn 1.01884e-05 0 0.999756
vn -0.999756 1.36446e-05 -1.02038e-07
vn -0.999756 1.6511e-07 -1.09885e-07
vn -0.999756 1.51942e-07 -1.09881e-07
vn -0.999756 1.36315e-05 -1.02035e-07
vn 0.999756 -1.49211e-07 -4.7079e-08
vn 0.999756 -1.49211e-07 9.42074e-08
vn 0.999756 -2.82722e-07 -4.7079e-08
vn 0.999756 -2.82722e-07 9.42074e-08
vn -1.57046e-07 -0.999756 1.05977e-05
vn -1.57046e-07 -0.999756 1.06981e-05
vn -2.66902e-07 -0.999756 -1.07099e-05
vn -2.66902e-07 -0.999756 -1.08103e-05
vn -2.06728e-09 0 -0.999756
vn 2.06773e-09 0 -0.999756
vn 2.06773e-09 0 -0.999756
vn -2.06728e-09 0 -0.999756
vt 0 0
vt 0 0
vt 0 0
vt 0 0
vt 0 0
vt 0 0
vt 0 0
vt 0 0
vt 0 0
vt 0 0
vt 0 0
vt 0 0
vt 0 0
vt 0 0
vt 0 0
vt 0 0
vt 0 1
vt 0 0
vt 1 0
vt 1 1
vt 0 0
vt 0 0
vt 0 0
vt 0 0
vt 0 0
vt 0 0
vt 0 0
vt 0 0
vt 0 0
vt 0 0
vt 0 0
vt 0 0
vt 0 0
vt 0 0
vt 0 0
vt 0 0
vt 0 1
vt 0 0
vt 1 0
vt 1 1
vt 0 0
vt 0 0
vt 0 0
vt 0 0
vt 0 0
vt 0 0
vt 0 0
vt 0 0
vt 0 0
vt 0 0
vt 0 0
vt 0 0
vt 0 0
vt 0 0
vt 0 0
vt 0 0
vt 0 1
vt 1 1
vt 1 0
vt 0 0
vt 0 0
vt 0 0
vt 0 0
vt 0 0
vt 0 0
vt 0 0
vt 0 0
vt 0 0
vt 0 0
vt 0 0
vt 0 0
vt 0 0
vt 0 0
vt 0 0
vt 0 0
vt 0 0
vt 0 1
vt 1 1
vt 1 0
vt 0 0
vt 0 0
vt 0 0
vt 0 0
vt 0 0
vt 0 0
vt 0 0
vt 0 0
vt 0 0
vt 0 0
vt 0 0
vt 0 0
vt 0 0
vt 0 0
vt 0 0
vt 0 0
vt 0 0
vt 0 1
vt 0 0
vt 1 0
vt 1 1
vt 0 0
vt 0 0
vt 0 0
vt 0 0
vt 0 0
vt 0 0
vt 0 0
vt 0 0
vt 0 0
vt 0 0
vt 0 0
vt 0 0
vt 0 0
vt 0 0
vt 0 0
vt 0 0
vt 0 1
vt 0 0
vt 1 0
vt 1 1
#  ----------------------------------------------------------
#  InternalName: cube
#  ExternalName: cube
#  Num verts:  32
#  Num sets:   120
#  Num elems:  30
#  Num tverts: 120
#  Num tsets:  120
#  Num tElems: 30

mtllib	cube-stonewall-poser.mtl
g 
usemtl Preview
f 1/1/1 4/2/4 10/3/10 9/4/9
f 6/5/6 5/6/5 11/7/11 12/8/12
f 5/9/5 1/10/1 9/11/9 11/12/11
f 4/13/4 6/14/6 12/15/12 10/16/10
f 9/17/9 10/18/10 12/19/12 11/20/11
f 5/21/5 6/22/6 14/23/14 13/24/13
f 6/25/6 7/26/7 15/27/15 14/28/14
f 7/29/7 8/30/8 16/31/16 15/32/15
f 8/33/8 5/34/5 13/35/13 16/36/16
f 13/37/13 14/38/14 15/39/15 16/40/16
f 4/41/4 3/42/3 17/43/17 18/44/18
f 7/45/7 6/46/6 19/47/19 20/48/20
f 3/49/3 7/50/7 20/51/20 17/52/17
f 6/53/6 4/54/4 18/55/18 19/56/19
f 17/57/17 20/58/20 19/59/19 18/60/18
f 2/61/2 1/62/1 21/63/21 22/64/22
f 5/65/5 8/66/8 24/67/24 23/68/23
f 1/69/1 5/70/5 23/71/23 21/72/21
f 8/73/8 2/74/2 22/75/22 24/76/24
f 21/77/21 23/78/23 24/79/24 22/80/22
f 3/81/3 2/82/2 25/83/25 26/84/26
f 8/85/8 7/86/7 27/87/27 28/88/28
f 2/89/2 8/90/8 28/91/28 25/92/25
f 7/93/7 3/94/3 26/95/26 27/96/27
f 26/97/26 25/98/25 28/99/28 27/100/27
f 1/101/1 2/102/2 30/103/30 29/104/29
f 2/105/2 3/106/3 31/107/31 30/108/30
f 3/109/3 4/110/4 32/111/32 31/112/31
f 4/113/4 1/114/1 29/115/29 32/116/32
f 29/117/29 30/118/30 31/119/31 32/120/32
