# Created By Carrara 7.0

mtllib blade-grass-green.Mtl

# Number of vertices: 65
v -0.280314 0.066653 0
v -0.134201 0.323321 0
v 0.100193 0.533447 0
v 0.17631 0.641054 0
v 0.020359 0.602445 0
v -0.255438 0.435261 0
v -0.459999 0.193428 0
v -0.457189 -0.072425 0
v -0.244914 -0.315576 0
v 0.038997 -0.483771 0
v 0.196676 -0.520789 0
v 0.11419 -0.407923 0
v -0.128996 -0.192112 0
v 0.22444 0.008915 11.648534
v 0.389843 0.346191 11.662109
v 0.655074 0.622223 11.685203
v 0.741227 0.763613 11.692446
v 0.564815 0.712978 11.67642
v 0.252782 0.493423 11.648725
v 0.021278 0.17569 11.628952
v 0.024307 -0.173768 11.63098
v 0.264267 -0.49354 11.654725
v 0.585291 -0.714839 11.685455
v 0.763615 -0.763614 11.702156
v 0.670382 -0.615193 11.69281
v 0.395446 -0.331335 11.666017
v -0.307955 0.08524 27.679501
v -0.17982 0.36481 27.683704
v 0.025938 0.59388 27.690504
v 0.092717 0.711114 27.692701
v -0.044285 0.668833 27.688147
v -0.286467 0.486427 27.680115
v -0.465978 0.222902 27.674198
v -0.463241 -0.066413 27.674364
v -0.276462 -0.330669 27.680655
v -0.026812 -0.513231 27.689032
v 0.111784 -0.553251 27.693661
v 0.039188 -0.430561 27.691208
v -0.174726 -0.19611 27.684017
v -0.050363 -0.034537 43.826473
v 0.014797 0.198834 43.831779
v 0.11871 0.389682 43.845951
v 0.152575 0.487495 43.849442
v 0.083752 0.452631 43.837177
v -0.038264 0.300947 43.81826
v -0.129132 0.081184 43.807541
v -0.128715 -0.160815 43.815243
v -0.035949 -0.382526 43.840229
v 0.088608 -0.536138 43.869244
v 0.15796 -0.570118 43.883785
v 0.121969 -0.467232 43.873558
v 0.015501 -0.270351 43.846687
v -0.728365 0.230242 60
v -0.705998 0.321725 59.727272
v -0.679627 0.385042 59.275787
v -0.622514 0.445036 58.703964
v -0.68873 0.415326 59.273075
v -0.71981 0.370853 59.723045
v -0.763613 0.252356 59.992466
v -0.737539 0.146288 59.588734
v -0.690768 0.032004 59.104424
v -0.640018 -0.047984 58.716091
v -0.621894 -0.064286 58.720127
v -0.649502 -0.008647 59.113708
v -0.699873 0.093667 59.597702

# Number of normals: 65
vn 0.999047 0.005811 -0.043262
vn 0.780143 -0.62463 -0.034842
vn 0.745857 -0.665356 -0.031597
vn 0.823283 0.565741 -0.046283
vn -0.387043 0.922002 0.01045
vn -0.652215 0.757591 0.025917
vn -0.940086 0.338652 0.039423
vn -0.935763 -0.350815 0.035715
vn -0.642575 -0.766019 0.017665
vn -0.376891 -0.926258 0.000457
vn 0.831322 -0.553308 -0.05248
vn 0.739195 0.673045 -0.024516
vn 0.775101 0.631201 -0.028368
vn 0.999977 0.004889 -0.004641
vn 0.818936 -0.573879 -0.002571
vn 0.792154 -0.610319 -0.00138
vn 0.797158 0.603749 -0.005154
vn -0.431839 0.90195 -0.001228
vn -0.700869 0.713288 0.001533
vn -0.952407 0.304792 0.004755
vn -0.94644 -0.322849 0.004503
vn -0.692323 -0.721587 0.001198
vn -0.421782 -0.906696 -0.001531
vn 0.804982 -0.593277 -0.005208
vn 0.78674 0.617283 -0.001189
vn 0.814939 0.579542 -0.002368
vn 0.999938 0.006252 0.00924
vn 0.835966 -0.548738 0.006967
vn 0.811312 -0.584548 0.008676
vn 0.780119 0.625329 0.019418
vn -0.455719 0.890123 0.001053
vn -0.723816 0.689991 -0.001945
vn -0.956396 0.292046 -0.004042
vn -0.951831 -0.306585 -0.004776
vn -0.712914 -0.701242 -0.003613
vn -0.441261 -0.897378 -0.001053
vn 0.791025 -0.611511 0.018278
vn 0.804151 0.594336 0.010267
vn 0.830369 0.557152 0.008355
vn 0.999887 0.000254 0.015046
vn 0.925769 -0.377736 0.016349
vn 0.914136 -0.404979 0.018635
vn 0.665682 0.745901 0.022353
vn -0.628796 0.777534 -0.007591
vn -0.859207 0.511502 -0.011362
vn -0.980814 0.194682 -0.010111
vn -0.979748 -0.200044 -0.008682
vn -0.857048 -0.515184 -0.007341
vn -0.62263 -0.782516 -0.00116
vn 0.671766 -0.740189 0.029188
vn 0.913893 0.405654 0.015671
vn 0.926007 0.377265 0.013532
vn 0.303183 -0.004397 0.952922
vn 0.96324 0.175501 0.20339
vn 0.966875 0.232609 0.105097
vn 0.945234 0.314786 0.086274
vn 0.924319 0.364309 0.113636
vn 0.858549 0.463752 0.218696
vn -0.210578 -0.06223 0.975594
vn -0.857536 -0.505016 0.097935
vn -0.762207 -0.645526 0.048337
vn -0.696732 -0.717023 0.021013
vn -0.642109 -0.766115 0.027631
vn -0.639757 -0.764364 0.080364
vn -0.722431 -0.678882 0.131197

# Number of texture vertices: 69
vt 0.462846 0.003057
vt 1.462846 0.003057
vt 0.312617 0.003714
vt 0.220452 0.005758
vt 0.207284 0.007053
vt 0.244624 0.006395
vt 0.334464 0.005354
vt 0.436648 0.005294
vt 0.525004 0.004911
vt 0.64496 0.004238
vt 0.762802 0.005149
vt 0.807469 0.005906
vt 0.79344 0.004494
vt 0.655889 0.002455
vt 0.006319 0.003896
vt 1.006319 0.003896
vt 0.115572 0.009048
vt 0.120908 0.01569
vt 0.127368 0.018482
vt 0.143372 0.015788
vt 0.17465 0.009613
vt 0.230819 0.003066
vt 1.230819 0.003066
vt 0.772119 0.00304
vt 0.828241 0.009711
vt 0.859194 0.016044
vt 0.875 0.018764
vt 0.881828 0.015807
vt 0.889003 0.008955
vt 0.457023 0.043558
vt 1.457023 0.043558
vt 0.322887 0.055328
vt 0.243053 0.08019
vt 0.229365 0.095921
vt 0.260523 0.089828
vt 0.334708 0.07598
vt 0.428988 0.069566
vt 0.522663 0.063208
vt 0.639172 0.058486
vt 0.741693 0.069655
vt 0.78173 0.076398
vt 0.764446 0.058924
vt 0.634167 0.035946
vt 0.595667 0.998594
vt 0.238178 0.995412
vt 0.202938 0.990638
vt 0.201725 0.988265
vt 0.22088 0.989415
vt 0.270128 0.993013
vt 0.410675 0.996484
vt 0.642573 0.995254
vt 0.735087 0.991166
vt 0.776068 0.987535
vt 0.793017 0.986445
vt 0.79064 0.988925
vt 0.759115 0.993776
vt 0.451272 0.991897
vt 0.431947 0.991694
vt 0.417962 0.991509
vt 0.401219 0.991516
vt 0.413635 0.991257
vt 0.424283 0.991331
vt 0.449201 0.991467
vt 0.468837 0.991913
vt 0.492631 0.992438
vt 0.51191 0.992887
vt 0.516394 0.993072
vt 0.502119 0.992899
vt 0.478825 0.992408

g Vertex_Object 
usemtl Texture_0
# Number of Polygons: 115
f 1/1/1 2/3/2 14/15/14 
f 2/3/2 3/4/3 15/17/15 
f 3/4/3 4/5/4 16/18/16 
f 4/5/4 5/6/5 18/20/18 
f 5/6/5 6/7/6 19/21/19 
f 6/7/6 7/8/7 20/22/20 
f 7/8/7 8/9/8 20/22/20 
f 8/9/8 9/10/9 21/24/21 
f 9/10/9 10/11/10 22/25/22 
f 10/11/10 11/12/11 23/26/23 
f 11/12/11 12/13/12 25/28/25 
f 12/13/12 13/14/13 26/29/26 
f 13/14/13 1/2/1 14/16/14 
f 14/15/14 15/17/15 27/30/27 
f 15/17/15 16/18/16 28/32/28 
f 16/18/16 17/19/17 29/33/29 
f 17/19/17 18/20/18 31/35/31 
f 18/20/18 19/21/19 32/36/32 
f 19/21/19 20/22/20 33/37/33 
f 20/23/20 21/24/21 34/38/34 
f 21/24/21 22/25/22 34/38/34 
f 22/25/22 23/26/23 35/39/35 
f 23/26/23 24/27/24 36/40/36 
f 24/27/24 25/28/25 38/42/38 
f 25/28/25 26/29/26 39/43/39 
f 26/29/26 14/16/14 27/31/27 
f 27/30/27 28/32/28 40/44/40 
f 28/32/28 29/33/29 41/45/41 
f 29/33/29 30/34/30 42/46/42 
f 30/34/30 31/35/31 44/48/44 
f 31/35/31 32/36/32 45/49/45 
f 32/36/32 33/37/33 46/50/46 
f 33/37/33 34/38/34 46/50/46 
f 34/38/34 35/39/35 47/51/47 
f 35/39/35 36/40/36 48/52/48 
f 36/40/36 37/41/37 49/53/49 
f 37/41/37 38/42/38 51/55/51 
f 38/42/38 39/43/39 52/56/52 
f 39/43/39 27/30/27 40/44/40 
f 40/44/40 41/45/41 54/58/54 
f 41/45/41 42/46/42 55/59/55 
f 42/46/42 43/47/43 56/60/56 
f 43/47/43 44/48/44 56/60/56 
f 44/48/44 45/49/45 57/61/57 
f 45/49/45 46/50/46 58/62/58 
f 46/50/46 47/51/47 60/64/60 
f 47/51/47 48/52/48 61/65/61 
f 48/52/48 49/53/49 62/66/62 
f 49/53/49 50/54/50 62/66/62 
f 50/54/50 51/55/51 63/67/63 
f 51/55/51 52/56/52 64/68/64 
f 52/56/52 40/44/40 65/69/65 
f 54/58/54 55/59/55 57/61/57 
f 2/3/2 15/17/15 14/15/14 
f 3/4/3 16/18/16 15/17/15 
f 4/5/4 17/19/17 16/18/16 
f 4/5/4 18/20/18 17/19/17 
f 5/6/5 19/21/19 18/20/18 
f 6/7/6 20/22/20 19/21/19 
f 8/9/8 21/24/21 20/23/20 
f 9/10/9 22/25/22 21/24/21 
f 10/11/10 23/26/23 22/25/22 
f 11/12/11 24/27/24 23/26/23 
f 11/12/11 25/28/25 24/27/24 
f 12/13/12 26/29/26 25/28/25 
f 13/14/13 14/16/14 26/29/26 
f 15/17/15 28/32/28 27/30/27 
f 16/18/16 29/33/29 28/32/28 
f 17/19/17 30/34/30 29/33/29 
f 17/19/17 31/35/31 30/34/30 
f 18/20/18 32/36/32 31/35/31 
f 19/21/19 33/37/33 32/36/32 
f 20/22/20 34/38/34 33/37/33 
f 22/25/22 35/39/35 34/38/34 
f 23/26/23 36/40/36 35/39/35 
f 24/27/24 37/41/37 36/40/36 
f 24/27/24 38/42/38 37/41/37 
f 25/28/25 39/43/39 38/42/38 
f 26/29/26 27/30/27 39/43/39 
f 28/32/28 41/45/41 40/44/40 
f 29/33/29 42/46/42 41/45/41 
f 30/34/30 43/47/43 42/46/42 
f 30/34/30 44/48/44 43/47/43 
f 31/35/31 45/49/45 44/48/44 
f 32/36/32 46/50/46 45/49/45 
f 34/38/34 47/51/47 46/50/46 
f 35/39/35 48/52/48 47/51/47 
f 36/40/36 49/53/49 48/52/48 
f 37/41/37 50/54/50 49/53/49 
f 37/41/37 51/55/51 50/54/50 
f 38/42/38 52/56/52 51/55/51 
f 39/43/39 40/44/40 52/56/52 
f 40/44/40 54/58/54 53/57/53 
f 41/45/41 55/59/55 54/58/54 
f 42/46/42 56/60/56 55/59/55 
f 44/48/44 57/61/57 56/60/56 
f 45/49/45 58/62/58 57/61/57 
f 46/50/46 59/63/59 58/62/58 
f 46/50/46 60/64/60 59/63/59 
f 47/51/47 61/65/61 60/64/60 
f 48/52/48 62/66/62 61/65/61 
f 50/54/50 63/67/63 62/66/62 
f 51/55/51 64/68/64 63/67/63 
f 52/56/52 65/69/65 64/68/64 
f 40/44/40 53/57/53 65/69/65 
f 55/59/55 56/60/56 57/61/57 
f 62/66/62 63/67/63 64/68/64 
f 62/66/62 64/68/64 61/65/61 
f 64/68/64 65/69/65 61/65/61 
f 65/69/65 60/64/60 61/65/61 
f 54/58/54 58/62/58 59/63/59 
f 54/58/54 57/61/57 58/62/58 
f 59/63/59 60/64/60 54/58/54 
f 53/57/53 60/64/60 65/69/65 
f 54/58/54 60/64/60 53/57/53 
