# Created By Carrara 7.0

mtllib coin-low-tex-gold-uv.Mtl

# Number of vertices: 32
v 30.166845 6.000559 0
v 25.574215 17.088146 0
v 17.088142 25.574219 0
v 6.000557 30.166847 0
v -6.000561 30.166847 0
v -17.088148 25.574217 0
v -25.574219 17.088144 0
v -30.166845 6.000557 0
v -30.166845 -6.00056 0
v -25.574215 -17.088148 0
v -17.088142 -25.574217 0
v -6.000556 -30.166845 0
v 6.000563 -30.166845 0
v 17.088148 -25.574213 0
v 25.574221 -17.08814 0
v 30.166847 -6.000553 0
v 30.166845 6.000559 3.6
v 25.574215 17.088146 3.6
v 17.088142 25.574219 3.6
v 6.000557 30.166847 3.6
v -6.000561 30.166847 3.6
v -17.088148 25.574217 3.6
v -25.574219 17.088144 3.6
v -30.166845 6.000557 3.6
v -30.166845 -6.00056 3.6
v -25.574215 -17.088148 3.6
v -17.088142 -25.574217 3.6
v -6.000556 -30.166845 3.6
v 6.000563 -30.166845 3.6
v 17.088148 -25.574213 3.6
v 25.574221 -17.08814 3.6
v 30.166847 -6.000553 3.6

# Number of normals: 180
vn 0.92388 0.382684 0
vn 0 0 -1
vn 0.92388 0.382684 0
vn 1 0 0
vn 0 0 -1
vn 0 0 -1
vn 0.92388 0.382683 0
vn 0 0 -1
vn 0.707107 0.707107 0
vn 0.707107 0.707107 0
vn 0.707107 0.707107 0
vn 0 0 -1
vn 0.382683 0.92388 0
vn 0.382683 0.92388 0
vn 0 0 -1
vn 0.382683 0.92388 0
vn 0 0 -1
vn 0 1 0
vn 0 1 0
vn 0 0 -1
vn 0 0 -1
vn 0 0 -1
vn 0 1 0
vn 0 0 -1
vn -0.382684 0.92388 0
vn -0.382684 0.92388 0
vn -0.382683 0.92388 0
vn 0 0 -1
vn -0.707107 0.707107 0
vn -0.707107 0.707107 0
vn 0 0 -1
vn 0 0 -1
vn 0 0 -1
vn 0 0 -1
vn -0.707107 0.707107 0
vn 0 0 -1
vn -0.92388 0.382683 0
vn -0.92388 0.382683 0
vn -0.92388 0.382683 0
vn 0 0 -1
vn -1 0 0
vn -1 0 0
vn 0 0 -1
vn 0 0 -1
vn 0 0 -1
vn -1 0 0
vn 0 0 -1
vn -0.92388 -0.382684 0
vn -0.92388 -0.382684 0
vn 0 0 -1
vn 0 0 -1
vn -0.92388 -0.382684 0
vn 0 0 -1
vn -0.707107 -0.707107 0
vn -0.382683 -0.92388 0
vn 0 0 -1
vn -0.382683 -0.92388 0
vn -0.707107 -0.707107 0
vn -0.707107 -0.707107 0
vn 0 0 -1
vn -0.382683 -0.92388 0
vn 0 0 -1
vn 0 -1 0
vn 0 -1 0
vn 0 0 -1
vn 0 0 -1
vn 0 0 -1
vn 0 -1 0
vn 0 0 -1
vn 0.382684 -0.92388 0
vn 0.382684 -0.923879 0
vn 0.382684 -0.923879 0
vn 0 0 -1
vn 0.707107 -0.707107 0
vn 0.707107 -0.707107 0
vn 0 0 -1
vn 0 0 -1
vn 0 0 -1
vn 0 0 -1
vn 0.707107 -0.707107 0
vn 0 0 -1
vn 0.92388 -0.382683 0
vn 0.92388 -0.382683 0
vn 0.92388 -0.382683 0
vn 0 0 -1
vn 1 0 0
vn 1 0 0
vn 0 0 -1
vn 0 0 -1
vn 0 0 -1
vn 1 0 0
vn 0.92388 0.382683 0
vn 1 0 0
vn 0 0 1
vn 0.92388 0.382684 0
vn 0.707107 0.707107 0
vn 0.92388 0.382684 0
vn 0 0 1
vn 0 0 1
vn 0 0 1
vn 0.707107 0.707107 0
vn 0.382683 0.92388 0
vn 0.707107 0.707107 0
vn 0 0 1
vn 0 0 1
vn 0 0 1
vn 0 0 1
vn 0.382683 0.92388 0
vn 0 1 0
vn 0.382683 0.92388 0
vn 0 0 1
vn 0 1 0
vn -0.382683 0.92388 0
vn 0 1 0
vn 0 0 1
vn 0 0 1
vn 0 0 1
vn 0 0 1
vn 0 0 1
vn -0.382684 0.92388 0
vn -0.707107 0.707107 0
vn -0.382684 0.92388 0
vn 0 0 1
vn -0.707107 0.707107 0
vn -0.92388 0.382683 0
vn -0.707107 0.707107 0
vn 0 0 1
vn 0 0 1
vn 0 0 1
vn 0 0 1
vn -0.92388 0.382683 0
vn -1 0 0
vn -0.92388 0.382683 0
vn 0 0 1
vn 0 0 1
vn -1 0 0
vn -0.92388 -0.382684 0
vn -1 0 0
vn 0 0 1
vn -0.92388 -0.382684 0
vn -0.707107 -0.707107 0
vn -0.92388 -0.382684 0
vn 0 0 1
vn 0 0 1
vn -0.707107 -0.707107 0
vn 0 0 1
vn -0.707107 -0.707107 0
vn -0.382683 -0.92388 0
vn 0 0 1
vn 0 0 1
vn 0 0 1
vn 0 0 1
vn -0.382683 -0.92388 0
vn 0 -1 0
vn -0.382683 -0.92388 0
vn 0 0 1
vn 0 -1 0
vn 0.382684 -0.923879 0
vn 0 -1 0
vn 0 0 1
vn 0 0 1
vn 0 0 1
vn 0 0 1
vn 0 0 1
vn 0.382684 -0.92388 0
vn 0.707107 -0.707107 0
vn 0.382684 -0.923879 0
vn 0 0 1
vn 0.707107 -0.707107 0
vn 0.92388 -0.382683 0
vn 0.707107 -0.707107 0
vn 0 0 1
vn 0 0 1
vn 0 0 1
vn 0 0 1
vn 0.92388 -0.382683 0
vn 1 0 0
vn 0.92388 -0.382683 0
vn 0 0 1
vn 0 0 1

# Number of texture vertices: 370
vt 0.094226 0.901974
vt 0.941173 0.901974
vt 0.30695 0.001287
vt 0.094226 0.901974
vt 0.941173 0.901974
vt 0.30695 0.001287
vt 0.094226 0.901974
vt 0.941173 0.901974
vt 0.30695 0.001287
vt 0.094226 0.901974
vt 0.941173 0.901974
vt 0.30695 0.001287
vt 0.094226 0.901974
vt 0.941173 0.901974
vt 0.30695 0.001287
vt 0.094226 0.901974
vt 0.941173 0.901974
vt 0.30695 0.001287
vt 0.14716 0.901974
vt 0.389647 0.035541
vt 0.14716 0.901974
vt 0.389647 0.035541
vt 0.14716 0.901974
vt 0.389647 0.035541
vt 0.14716 0.901974
vt 0.389647 0.035541
vt 0.200095 0.901974
vt 0.452941 0.098835
vt 0.200095 0.901974
vt 0.452941 0.098835
vt 0.200095 0.901974
vt 0.452941 0.098835
vt 0.200095 0.901974
vt 0.452941 0.098835
vt 0.200095 0.901974
vt 0.452941 0.098835
vt 0.253029 0.901974
vt 0.487195 0.181532
vt 0.253029 0.901974
vt 0.487195 0.181532
vt 0.253029 0.901974
vt 0.487195 0.181532
vt 0.253029 0.901974
vt 0.487195 0.181532
vt 0.253029 0.901974
vt 0.487195 0.181532
vt 0.253029 0.901974
vt 0.487195 0.181532
vt 0.253029 0.901974
vt 0.487195 0.181532
vt 0.305963 0.901974
vt 0.487195 0.271043
vt 0.305963 0.901974
vt 0.487195 0.271043
vt 0.305963 0.901974
vt 0.487195 0.271043
vt 0.305963 0.901974
vt 0.487195 0.271043
vt 0.358897 0.901974
vt 0.452941 0.35374
vt 0.358897 0.901974
vt 0.452941 0.35374
vt 0.358897 0.901974
vt 0.452941 0.35374
vt 0.358897 0.901974
vt 0.452941 0.35374
vt 0.358897 0.901974
vt 0.452941 0.35374
vt 0.358897 0.901974
vt 0.452941 0.35374
vt 0.358897 0.901974
vt 0.452941 0.35374
vt 0.358897 0.901974
vt 0.452941 0.35374
vt 0.411831 0.901974
vt 0.389647 0.417033
vt 0.411831 0.901974
vt 0.389647 0.417033
vt 0.411831 0.901974
vt 0.389647 0.417033
vt 0.411831 0.901974
vt 0.389647 0.417033
vt 0.464766 0.901974
vt 0.30695 0.451287
vt 0.464766 0.901974
vt 0.30695 0.451287
vt 0.464766 0.901974
vt 0.30695 0.451287
vt 0.464766 0.901974
vt 0.30695 0.451287
vt 0.464766 0.901974
vt 0.30695 0.451287
vt 0.464766 0.901974
vt 0.30695 0.451287
vt 0.464766 0.901974
vt 0.30695 0.451287
vt 0.5177 0.901974
vt 0.21744 0.451287
vt 0.5177 0.901974
vt 0.21744 0.451287
vt 0.5177 0.901974
vt 0.21744 0.451287
vt 0.5177 0.901974
vt 0.21744 0.451287
vt 0.5177 0.901974
vt 0.21744 0.451287
vt 0.5177 0.901974
vt 0.21744 0.451287
vt 0.570634 0.901974
vt 0.134743 0.417033
vt 0.570634 0.901974
vt 0.134743 0.417033
vt 0.570634 0.901974
vt 0.134743 0.417033
vt 0.623568 0.901974
vt 0.071449 0.353739
vt 0.623568 0.901974
vt 0.071449 0.353739
vt 0.623568 0.901974
vt 0.071449 0.353739
vt 0.623568 0.901974
vt 0.071449 0.353739
vt 0.623568 0.901974
vt 0.071449 0.353739
vt 0.623568 0.901974
vt 0.071449 0.353739
vt 0.676502 0.901974
vt 0.037195 0.271042
vt 0.676502 0.901974
vt 0.037195 0.271042
vt 0.676502 0.901974
vt 0.037195 0.271042
vt 0.676502 0.901974
vt 0.037195 0.271042
vt 0.676502 0.901974
vt 0.037195 0.271042
vt 0.676502 0.901974
vt 0.037195 0.271042
vt 0.676502 0.901974
vt 0.037195 0.271042
vt 0.729437 0.901974
vt 0.037195 0.181532
vt 0.729437 0.901974
vt 0.037195 0.181532
vt 0.729437 0.901974
vt 0.037195 0.181532
vt 0.729437 0.901974
vt 0.037195 0.181532
vt 0.782371 0.901974
vt 0.071449 0.098835
vt 0.782371 0.901974
vt 0.071449 0.098835
vt 0.782371 0.901974
vt 0.071449 0.098835
vt 0.782371 0.901974
vt 0.071449 0.098835
vt 0.782371 0.901974
vt 0.071449 0.098835
vt 0.782371 0.901974
vt 0.071449 0.098835
vt 0.782371 0.901974
vt 0.071449 0.098835
vt 0.782371 0.901974
vt 0.071449 0.098835
vt 0.835305 0.901974
vt 0.134743 0.035541
vt 0.835305 0.901974
vt 0.134743 0.035541
vt 0.835305 0.901974
vt 0.134743 0.035541
vt 0.835305 0.901974
vt 0.134743 0.035541
vt 0.888239 0.901974
vt 0.21744 0.001287
vt 0.888239 0.901974
vt 0.21744 0.001287
vt 0.888239 0.901974
vt 0.21744 0.001287
vt 0.888239 0.901974
vt 0.21744 0.001287
vt 0.888239 0.901974
vt 0.21744 0.001287
vt 0.888239 0.901974
vt 0.21744 0.001287
vt 0.888239 0.901974
vt 0.21744 0.001287
vt 0.941173 0.966137
vt 0.094226 0.966137
vt 0.798143 0.454675
vt 0.941173 0.966137
vt 0.094226 0.966137
vt 0.798143 0.454675
vt 0.941173 0.966137
vt 0.094226 0.966137
vt 0.798143 0.454675
vt 0.941173 0.966137
vt 0.094226 0.966137
vt 0.798143 0.454675
vt 0.14716 0.966137
vt 0.88084 0.420421
vt 0.14716 0.966137
vt 0.88084 0.420421
vt 0.14716 0.966137
vt 0.88084 0.420421
vt 0.14716 0.966137
vt 0.88084 0.420421
vt 0.14716 0.966137
vt 0.88084 0.420421
vt 0.14716 0.966137
vt 0.88084 0.420421
vt 0.200095 0.966137
vt 0.944133 0.357127
vt 0.200095 0.966137
vt 0.944133 0.357127
vt 0.200095 0.966137
vt 0.944133 0.357127
vt 0.200095 0.966137
vt 0.944133 0.357127
vt 0.200095 0.966137
vt 0.944133 0.357127
vt 0.200095 0.966137
vt 0.944133 0.357127
vt 0.200095 0.966137
vt 0.944133 0.357127
vt 0.253029 0.966137
vt 0.978387 0.27443
vt 0.253029 0.966137
vt 0.978387 0.27443
vt 0.253029 0.966137
vt 0.978387 0.27443
vt 0.253029 0.966137
vt 0.978387 0.27443
vt 0.305963 0.966137
vt 0.978387 0.184919
vt 0.305963 0.966137
vt 0.978387 0.184919
vt 0.305963 0.966137
vt 0.978387 0.184919
vt 0.305963 0.966137
vt 0.978387 0.184919
vt 0.305963 0.966137
vt 0.978387 0.184919
vt 0.305963 0.966137
vt 0.978387 0.184919
vt 0.305963 0.966137
vt 0.978387 0.184919
vt 0.305963 0.966137
vt 0.978387 0.184919
vt 0.358897 0.966137
vt 0.944133 0.102223
vt 0.358897 0.966137
vt 0.944133 0.102223
vt 0.358897 0.966137
vt 0.944133 0.102223
vt 0.358897 0.966137
vt 0.944133 0.102223
vt 0.411831 0.966137
vt 0.88084 0.038929
vt 0.411831 0.966137
vt 0.88084 0.038929
vt 0.411831 0.966137
vt 0.88084 0.038929
vt 0.411831 0.966137
vt 0.88084 0.038929
vt 0.411831 0.966137
vt 0.88084 0.038929
vt 0.411831 0.966137
vt 0.88084 0.038929
vt 0.411831 0.966137
vt 0.88084 0.038929
vt 0.464766 0.966137
vt 0.798143 0.004675
vt 0.464766 0.966137
vt 0.798143 0.004675
vt 0.464766 0.966137
vt 0.798143 0.004675
vt 0.464766 0.966137
vt 0.798143 0.004675
vt 0.464766 0.966137
vt 0.798143 0.004675
vt 0.5177 0.966137
vt 0.708632 0.004675
vt 0.5177 0.966137
vt 0.708632 0.004675
vt 0.5177 0.966137
vt 0.708632 0.004675
vt 0.5177 0.966137
vt 0.708632 0.004675
vt 0.570634 0.966137
vt 0.625935 0.038929
vt 0.570634 0.966137
vt 0.625935 0.038929
vt 0.570634 0.966137
vt 0.625935 0.038929
vt 0.570634 0.966137
vt 0.625935 0.038929
vt 0.570634 0.966137
vt 0.625935 0.038929
vt 0.570634 0.966137
vt 0.625935 0.038929
vt 0.570634 0.966137
vt 0.625935 0.038929
vt 0.623568 0.966137
vt 0.562642 0.102223
vt 0.623568 0.966137
vt 0.562642 0.102223
vt 0.623568 0.966137
vt 0.562642 0.102223
vt 0.623568 0.966137
vt 0.562642 0.102223
vt 0.623568 0.966137
vt 0.562642 0.102223
vt 0.623568 0.966137
vt 0.562642 0.102223
vt 0.676502 0.966137
vt 0.528387 0.18492
vt 0.676502 0.966137
vt 0.528387 0.18492
vt 0.676502 0.966137
vt 0.528387 0.18492
vt 0.676502 0.966137
vt 0.528387 0.18492
vt 0.729437 0.966137
vt 0.528387 0.27443
vt 0.729437 0.966137
vt 0.528387 0.27443
vt 0.729437 0.966137
vt 0.528387 0.27443
vt 0.729437 0.966137
vt 0.528387 0.27443
vt 0.729437 0.966137
vt 0.528387 0.27443
vt 0.729437 0.966137
vt 0.528387 0.27443
vt 0.729437 0.966137
vt 0.528387 0.27443
vt 0.729437 0.966137
vt 0.528387 0.27443
vt 0.782371 0.966137
vt 0.562642 0.357127
vt 0.782371 0.966137
vt 0.562642 0.357127
vt 0.782371 0.966137
vt 0.562642 0.357127
vt 0.782371 0.966137
vt 0.562642 0.357127
vt 0.835305 0.966137
vt 0.625935 0.420421
vt 0.835305 0.966137
vt 0.625935 0.420421
vt 0.835305 0.966137
vt 0.625935 0.420421
vt 0.835305 0.966137
vt 0.625935 0.420421
vt 0.835305 0.966137
vt 0.625935 0.420421
vt 0.835305 0.966137
vt 0.625935 0.420421
vt 0.835305 0.966137
vt 0.625935 0.420421
vt 0.888239 0.966137
vt 0.708632 0.454675
vt 0.888239 0.966137
vt 0.708632 0.454675
vt 0.888239 0.966137
vt 0.708632 0.454675
vt 0.888239 0.966137
vt 0.708632 0.454675
vt 0.888239 0.966137
vt 0.708632 0.454675

g Vertex_Object 
usemtl side
# Number of Polygons: 32
f 1/1/1 2/19/7 18/199/95 
f 2/23/9 3/27/11 19/211/101 
f 3/31/13 4/37/16 20/225/108 
f 4/43/19 5/51/23 21/233/112 
f 5/57/26 6/59/27 22/249/120 
f 6/65/30 7/75/35 23/257/124 
f 7/81/38 8/83/39 24/271/131 
f 8/87/41 9/97/46 25/281/136 
f 9/103/49 10/109/52 26/289/140 
f 11/115/55 12/127/61 28/315/153 
f 12/131/63 13/141/68 29/323/157 
f 13/147/71 14/149/72 30/339/165 
f 14/155/75 15/165/80 31/347/169 
f 15/169/82 16/173/84 32/361/176 
f 16/177/86 1/11/4 17/187/91 
f 11/121/58 27/303/147 26/291/141 
f 1/7/3 18/203/97 17/191/92 
f 2/23/9 19/211/101 18/201/96 
f 3/31/13 20/225/108 19/213/102 
f 4/41/18 21/237/114 20/227/109 
f 5/55/25 22/253/122 21/235/113 
f 6/63/29 23/261/126 22/251/121 
f 7/79/37 24/275/133 23/259/125 
f 8/87/41 25/281/136 24/273/132 
f 9/101/48 26/293/142 25/283/137 
f 11/115/55 28/315/153 27/305/148 
f 12/131/63 29/323/157 28/317/154 
f 13/145/70 30/343/167 29/325/158 
f 14/153/74 31/351/171 30/341/166 
f 15/169/82 32/361/176 31/349/170 
f 16/177/86 17/187/91 32/363/177 
f 11/121/58 26/291/141 10/113/54 
usemtl top
# Number of Polygons: 14
f 24/278/134 25/288/139 26/296/143 
f 26/296/143 27/308/149 23/264/127 
f 26/296/143 23/264/127 24/278/134 
f 27/308/149 28/322/156 29/330/160 
f 27/308/149 29/330/160 21/240/115 
f 21/240/115 22/256/123 23/264/127 
f 21/240/115 23/264/127 27/308/149 
f 32/368/179 17/198/94 18/206/98 
f 18/206/98 19/218/104 31/354/172 
f 18/206/98 31/354/172 32/368/179 
f 19/218/104 20/232/111 21/240/115 
f 19/218/104 21/240/115 29/330/160 
f 29/330/160 30/346/168 31/354/172 
f 29/330/160 31/354/172 19/218/104 
usemtl bottom
# Number of Polygons: 14
f 3/30/12 2/22/8 1/6/2 
f 1/6/2 16/176/85 4/40/17 
f 1/6/2 4/40/17 3/30/12 
f 16/176/85 15/168/81 14/152/73 
f 16/176/85 14/152/73 6/62/28 
f 6/62/28 5/54/24 4/40/17 
f 6/62/28 4/40/17 16/176/85 
f 11/118/56 10/112/53 9/100/47 
f 9/100/47 8/86/40 12/130/62 
f 9/100/47 12/130/62 11/118/56 
f 8/86/40 7/78/36 6/62/28 
f 8/86/40 6/62/28 14/152/73 
f 14/152/73 13/144/69 12/130/62 
f 14/152/73 12/130/62 8/86/40 
