v 28.4531 1.25419 30
v 20.4147 15.1772 30
v 6.49162 23.2157 30
v -9.58534 23.2157 30
v -23.5084 15.1772 30
v -31.5469 1.25419 30
v -31.5469 -14.8228 30
v -23.5084 -28.7458 30
v -9.58533 -36.7843 30
v 6.49161 -36.7843 30
v 20.4147 -28.7458 30
v 28.4531 -14.8228 30
v 27.4309 0.980286 37.7646
v 19.6663 14.4289 37.7646
v 6.21771 22.1935 37.7646
v -9.31143 22.1935 37.7646
v -22.7601 14.4289 37.7646
v -30.5246 0.980283 37.7646
v -30.5246 -14.5489 37.7646
v -22.7601 -27.9975 37.7646
v -9.31143 -35.7621 37.7646
v 6.21771 -35.7621 37.7646
v 19.6663 -27.9975 37.7646
v 27.4309 -14.5488 37.7646
v 27.4309 0.980286 22.2354
v 19.6663 14.4289 22.2354
v 6.21771 22.1935 22.2354
v -9.31143 22.1935 22.2354
v -22.7601 14.4289 22.2354
v -30.5246 0.980283 22.2354
v -30.5246 -14.5489 22.2354
v -22.7601 -27.9975 22.2354
v -9.31143 -35.7621 22.2354
v 6.21771 -35.7621 22.2354
v 19.6663 -27.9975 22.2354
v 27.4309 -14.5488 22.2354
v 24.4339 0.177239 45
v 17.4724 12.235 45
v 5.41467 19.1965 45
v -8.50839 19.1965 45
v -20.5661 12.235 45
v -27.5276 0.177236 45
v -27.5276 -13.7458 45
v -20.5661 -25.8035 45
v -8.50838 -32.765 45
v 5.41466 -32.765 45
v 17.4724 -25.8035 45
v 24.4339 -13.7458 45
v 24.4339 0.177239 15
v 17.4724 12.235 15
v 5.41467 19.1965 15
v -8.50839 19.1965 15
v -20.5661 12.235 15
v -27.5276 0.177236 15
v -27.5276 -13.7458 15
v -20.5661 -25.8035 15
v -8.50838 -32.765 15
v 5.41466 -32.765 15
v 17.4724 -25.8035 15
v 24.4339 -13.7458 15
v 19.6663 -1.10022 51.2132
v 13.9823 8.74486 51.2132
v 4.1372 14.4289 51.2132
v -7.23092 14.4289 51.2132
v -17.076 8.74486 51.2132
v -22.7601 -1.10023 51.2132
v -22.7601 -12.4683 51.2132
v -17.076 -22.3134 51.2132
v -7.23092 -27.9975 51.2132
v 4.1372 -27.9975 51.2132
v 13.9823 -22.3134 51.2132
v 19.6663 -12.4683 51.2132
v 19.6663 -1.10022 8.78679
v 13.9823 8.74486 8.78679
v 4.1372 14.4289 8.78679
v -7.23092 14.4289 8.78679
v -17.076 8.74486 8.78679
v -22.7601 -1.10023 8.78679
v -22.7601 -12.4683 8.78679
v -17.076 -22.3134 8.78679
v -7.23092 -27.9975 8.78679
v 4.1372 -27.9975 8.78679
v 13.9823 -22.3134 8.78679
v 19.6663 -12.4683 8.78679
v 13.4531 -2.76505 55.9807
v 9.4339 4.19648 55.9807
v 2.47238 8.21571 55.9807
v -5.5661 8.21571 55.9807
v -12.5276 4.19648 55.9807
v -16.5469 -2.76505 55.9807
v -16.5469 -10.8035 55.9807
v -12.5276 -17.765 55.9807
v -5.5661 -21.7843 55.9807
v 2.47238 -21.7843 55.9807
v 9.4339 -17.765 55.9807
v 13.4531 -10.8035 55.9807
v 13.4531 -2.76505 4.01923
v 9.4339 4.19648 4.01923
v 2.47238 8.21571 4.01923
v -5.5661 8.21571 4.01923
v -12.5276 4.19648 4.01923
v -16.5469 -2.76505 4.01923
v -16.5469 -10.8035 4.01923
v -12.5276 -17.765 4.01923
v -5.5661 -21.7843 4.01923
v 2.47238 -21.7843 4.01923
v 9.4339 -17.765 4.01923
v 13.4531 -10.8035 4.01923
v 6.21771 -4.70377 58.9778
v 4.1372 -1.10022 58.9778
v 0.533651 0.980287 58.9778
v -3.62737 0.980287 58.9778
v -7.23092 -1.10022 58.9778
v -9.31143 -4.70377 58.9778
v -9.31143 -8.86479 58.9778
v -7.23092 -12.4683 58.9778
v -3.62737 -14.5489 58.9778
v 0.533651 -14.5489 58.9778
v 4.1372 -12.4683 58.9778
v 6.21771 -8.86479 58.9778
v 6.21771 -4.70377 1.02221
v 4.1372 -1.10022 1.02221
v 0.533651 0.980287 1.02221
v -3.62737 0.980287 1.02221
v -7.23092 -1.10022 1.02221
v -9.31143 -4.70377 1.02221
v -9.31143 -8.86479 1.02221
v -7.23092 -12.4683 1.02221
v -3.62737 -14.5489 1.02221
v 0.533651 -14.5489 1.02221
v 4.1372 -12.4683 1.02221
v 6.21771 -8.86479 1.02221
v -1.54686 -6.78428 -1.1e-05
v -1.54686 -6.78428 60
vn 0.922306 0.3845 0.033747
vn 0.707134 0.707134 -3.89014e-08
vn 0.258829 0.965964 -1.80243e-07
vn -0.258829 0.965964 1.56902e-07
vn -0.707134 0.707135 2.59342e-09
vn -0.965964 0.258829 -8.29896e-08
vn -0.965964 -0.258829 -5.05718e-08
vn -0.707134 -0.707135 -2.33408e-08
vn -0.258829 -0.965964 -7.78027e-08
vn 0.258829 -0.965964 -5.18685e-09
vn 0.707135 -0.707134 9.59567e-08
vn 0.965964 -0.258829 -5.18685e-08
vn 0.881647 0.366338 0.29741
vn 0.68351 0.679216 0.267302
vn 0.252329 0.929973 0.267302
vn -0.246464 0.931545 0.267302
vn -0.679216 0.683509 0.267302
vn -0.929973 0.252329 0.267302
vn -0.931545 -0.246464 0.267302
vn -0.683509 -0.679216 0.267302
vn -0.252329 -0.929973 0.267302
vn 0.246464 -0.931545 0.267302
vn 0.679216 -0.683509 0.267302
vn 0.929973 -0.252328 0.267302
vn 0.897383 0.375322 -0.232504
vn 0.679216 0.683509 -0.267302
vn 0.246464 0.931545 -0.267302
vn -0.252329 0.929973 -0.267302
vn -0.68351 0.679216 -0.267302
vn -0.931545 0.246464 -0.267302
vn -0.929973 -0.252329 -0.267302
vn -0.679216 -0.68351 -0.267302
vn -0.246463 -0.931545 -0.267302
vn 0.252329 -0.929973 -0.267302
vn 0.68351 -0.679216 -0.267302
vn 0.931545 -0.246463 -0.267302
vn 0.778759 0.322328 0.538182
vn 0.61104 0.6028 0.513029
vn 0.227777 0.82756 0.513029
vn -0.21652 0.830576 0.513029
vn -0.6028 0.61104 0.513029
vn -0.82756 0.227777 0.513029
vn -0.830576 -0.21652 0.513029
vn -0.61104 -0.6028 0.513029
vn -0.227777 -0.82756 0.513029
vn 0.21652 -0.830576 0.513029
vn 0.6028 -0.61104 0.513029
vn 0.82756 -0.227776 0.513029
vn 0.808553 0.339408 -0.480587
vn 0.6028 0.61104 -0.513029
vn 0.21652 0.830576 -0.513029
vn -0.227777 0.82756 -0.513029
vn -0.61104 0.6028 -0.513029
vn -0.830576 0.21652 -0.513029
vn -0.82756 -0.227777 -0.513029
vn -0.6028 -0.61104 -0.513029
vn -0.21652 -0.830576 -0.513029
vn 0.227777 -0.82756 -0.513029
vn 0.61104 -0.602799 -0.513029
vn 0.830576 -0.216519 -0.513029
vn 0.623155 0.256514 0.738982
vn 0.497028 0.485475 0.719243
vn 0.187702 0.668948 0.719243
vn -0.17192 0.673177 0.719243
vn -0.485475 0.497028 0.719243
vn -0.668948 0.187701 0.719243
vn -0.673177 -0.17192 0.719243
vn -0.497028 -0.485475 0.719243
vn -0.187702 -0.668948 0.719243
vn 0.17192 -0.673177 0.719243
vn 0.485476 -0.497028 0.719243
vn 0.668948 -0.187701 0.719243
vn 0.664575 0.28033 -0.69255
vn 0.485475 0.497028 -0.719243
vn 0.17192 0.673177 -0.719243
vn -0.187702 0.668948 -0.719243
vn -0.497028 0.485475 -0.719243
vn -0.673177 0.17192 -0.719243
vn -0.668948 -0.187702 -0.719243
vn -0.485475 -0.497028 -0.719243
vn -0.17192 -0.673177 -0.719243
vn 0.187702 -0.668948 -0.719243
vn 0.497029 -0.485475 -0.719243
vn 0.673177 -0.17192 -0.719243
vn 0.427406 0.174198 0.887321
vn 0.351406 0.337378 0.873342
vn 0.135638 0.467881 0.873343
vn -0.116475 0.473015 0.873343
vn -0.337378 0.351406 0.873342
vn -0.46788 0.135638 0.873343
vn -0.473015 -0.116475 0.873342
vn -0.351406 -0.337378 0.873343
vn -0.135638 -0.46788 0.873343
vn 0.116475 -0.473015 0.873343
vn 0.337378 -0.351406 0.873343
vn 0.46788 -0.135637 0.873343
vn 0.477391 0.203005 -0.854845
vn 0.337378 0.351406 -0.873342
vn 0.116475 0.473015 -0.873342
vn -0.135638 0.467881 -0.873343
vn -0.351406 0.337378 -0.873342
vn -0.473015 0.116475 -0.873343
vn -0.467881 -0.135638 -0.873343
vn -0.337378 -0.351406 -0.873343
vn -0.116475 -0.473015 -0.873343
vn 0.135638 -0.467881 -0.873343
vn 0.351406 -0.337378 -0.873342
vn 0.473015 -0.116475 -0.873343
vn 0.241988 0.0648403 0.967949
vn 0.208744 0.180424 0.961265
vn 0.0905652 0.260624 0.961266
vn -0.0518801 0.27099 0.961266
vn -0.180425 0.208744 0.961265
vn -0.260624 0.0905654 0.961266
vn -0.270989 -0.0518801 0.961266
vn -0.208744 -0.180424 0.961266
vn -0.0326555 -0.121872 0.992171
vn 0.05188 -0.27099 0.961266
vn 0.180424 -0.208744 0.961266
vn 0.260624 -0.0905653 0.961266
vn 0.241987 0.0648403 -0.96795
vn 0.180424 0.208744 -0.961265
vn 0.0518801 0.27099 -0.961265
vn -0.0905655 0.260624 -0.961266
vn -0.208744 0.180424 -0.961265
vn -0.27099 0.0518801 -0.961266
vn -0.260624 -0.0905654 -0.961265
vn -0.180424 -0.208744 -0.961266
vn -0.0326554 -0.121872 -0.992171
vn 0.0905654 -0.260624 -0.961265
vn 0.208744 -0.180424 -0.961265
vn 0.27099 -0.05188 -0.961266
vn 0.0448693 -0.0448693 -0.99798
vn 0.0668212 -0.0668214 0.99559
vt 0.041667 0.5
vt 1.04167 0.5
vt 0.125 0.5
vt 0.208333 0.5
vt 0.291667 0.5
vt 0.375 0.5
vt 0.458333 0.5
vt 0.541667 0.5
vt 0.625 0.5
vt 0.708333 0.5
vt 0.791667 0.5
vt 0.875 0.5
vt 0.958333 0.5
vt 1.04167 0.583333
vt 0.041667 0.583333
vt 0.125 0.583333
vt 0.208333 0.583333
vt 0.291667 0.583333
vt 0.375 0.583333
vt 0.458333 0.583333
vt 0.541667 0.583333
vt 0.625 0.583333
vt 0.708333 0.583333
vt 0.791667 0.583333
vt 0.875 0.583333
vt 0.958333 0.583333
vt 0.041667 0.416667
vt 1.04167 0.416667
vt 0.125 0.416667
vt 0.208333 0.416667
vt 0.291667 0.416667
vt 0.375 0.416667
vt 0.458333 0.416667
vt 0.541667 0.416667
vt 0.625 0.416667
vt 0.708333 0.416667
vt 0.791667 0.416667
vt 0.875 0.416667
vt 0.958333 0.416667
vt 1.04167 0.666667
vt 0.041667 0.666667
vt 0.125 0.666667
vt 0.208333 0.666667
vt 0.291667 0.666667
vt 0.375 0.666667
vt 0.458333 0.666667
vt 0.541667 0.666667
vt 0.625 0.666667
vt 0.708333 0.666667
vt 0.791667 0.666667
vt 0.875 0.666667
vt 0.958333 0.666667
vt 0.041667 0.333333
vt 1.04167 0.333333
vt 0.125 0.333333
vt 0.208333 0.333333
vt 0.291667 0.333333
vt 0.375 0.333333
vt 0.458333 0.333333
vt 0.541667 0.333333
vt 0.625 0.333333
vt 0.708333 0.333333
vt 0.791667 0.333333
vt 0.875 0.333333
vt 0.958333 0.333333
vt 1.04167 0.75
vt 0.041667 0.75
vt 0.125 0.75
vt 0.208333 0.75
vt 0.291667 0.75
vt 0.375 0.75
vt 0.458333 0.75
vt 0.541667 0.75
vt 0.625 0.75
vt 0.708333 0.75
vt 0.791667 0.75
vt 0.875 0.75
vt 0.958333 0.75
vt 0.041667 0.25
vt 1.04167 0.25
vt 0.125 0.25
vt 0.208333 0.25
vt 0.291667 0.25
vt 0.375 0.25
vt 0.458333 0.25
vt 0.541667 0.25
vt 0.625 0.25
vt 0.708333 0.25
vt 0.791667 0.25
vt 0.875 0.25
vt 0.958333 0.25
vt 1.04167 0.833333
vt 0.041667 0.833333
vt 0.125 0.833333
vt 0.208333 0.833333
vt 0.291667 0.833333
vt 0.375 0.833333
vt 0.458333 0.833333
vt 0.541667 0.833333
vt 0.625 0.833333
vt 0.708333 0.833333
vt 0.791667 0.833333
vt 0.875 0.833333
vt 0.958333 0.833333
vt 0.041667 0.166667
vt 1.04167 0.166667
vt 0.125 0.166667
vt 0.208333 0.166667
vt 0.291667 0.166667
vt 0.375 0.166667
vt 0.458333 0.166667
vt 0.541667 0.166667
vt 0.625 0.166667
vt 0.708333 0.166667
vt 0.791667 0.166667
vt 0.875 0.166667
vt 0.958333 0.166667
vt 1.04167 0.916667
vt 0.041667 0.916667
vt 0.125 0.916667
vt 0.208333 0.916667
vt 0.291667 0.916667
vt 0.375 0.916667
vt 0.458333 0.916667
vt 0.541667 0.916667
vt 0.625 0.916667
vt 0.708333 0.916667
vt 0.791667 0.916667
vt 0.875 0.916667
vt 0.958333 0.916667
vt 0.041667 0.083333
vt 1.04167 0.083333
vt 0.125 0.083333
vt 0.208333 0.083333
vt 0.291667 0.083333
vt 0.375 0.083333
vt 0.458333 0.083333
vt 0.541667 0.083333
vt 0.625 0.083333
vt 0.708333 0.083333
vt 0.791667 0.083333
vt 0.875 0.083333
vt 0.958333 0.083333
vt 1.23677 0
vt 0.236768 0
vt 0.236768 1
vt 1.23677 1
#  ----------------------------------------------------------
#  InternalName: sphere-low
#  ExternalName: sphere-low
#  Num verts:  134
#  Num sets:   792
#  Num elems:  264
#  Num tverts: 147
#  Num tsets:  792
#  Num tElems: 264

mtllib	sphere-reptile.mtl
g sphere-low
g sphere-low
usemtl Texture_0
f 1/1/1 2/3/2 14/16/14
f 2/3/2 3/4/3 15/17/15
f 3/4/3 4/5/4 16/18/16
f 4/5/4 5/6/5 17/19/17
f 5/6/5 6/7/6 18/20/18
f 6/7/6 7/8/7 19/21/19
f 7/8/7 8/9/8 20/22/20
f 8/9/8 9/10/9 21/23/21
f 9/10/9 10/11/10 22/24/22
f 10/11/10 11/12/11 23/25/23
f 11/12/11 12/13/12 24/26/24
f 12/13/12 1/2/1 13/14/13
f 25/27/25 26/29/26 2/3/2
f 26/29/26 27/30/27 3/4/3
f 27/30/27 28/31/28 4/5/4
f 28/31/28 29/32/29 5/6/5
f 29/32/29 30/33/30 6/7/6
f 30/33/30 31/34/31 7/8/7
f 31/34/31 32/35/32 8/9/8
f 32/35/32 33/36/33 9/10/9
f 33/36/33 34/37/34 10/11/10
f 34/37/34 35/38/35 11/12/11
f 35/38/35 36/39/36 12/13/12
f 36/39/36 25/28/25 1/2/1
f 13/15/13 14/16/14 38/42/38
f 14/16/14 15/17/15 39/43/39
f 15/17/15 16/18/16 40/44/40
f 16/18/16 17/19/17 41/45/41
f 17/19/17 18/20/18 42/46/42
f 18/20/18 19/21/19 43/47/43
f 19/21/19 20/22/20 44/48/44
f 20/22/20 21/23/21 45/49/45
f 21/23/21 22/24/22 46/50/46
f 22/24/22 23/25/23 47/51/47
f 23/25/23 24/26/24 48/52/48
f 24/26/24 13/14/13 37/40/37
f 49/53/49 50/55/50 26/29/26
f 50/55/50 51/56/51 27/30/27
f 51/56/51 52/57/52 28/31/28
f 52/57/52 53/58/53 29/32/29
f 53/58/53 54/59/54 30/33/30
f 54/59/54 55/60/55 31/34/31
f 55/60/55 56/61/56 32/35/32
f 56/61/56 57/62/57 33/36/33
f 57/62/57 58/63/58 34/37/34
f 58/63/58 59/64/59 35/38/35
f 59/64/59 60/65/60 36/39/36
f 60/65/60 49/54/49 25/28/25
f 37/41/37 38/42/38 62/68/62
f 38/42/38 39/43/39 63/69/63
f 39/43/39 40/44/40 64/70/64
f 40/44/40 41/45/41 65/71/65
f 41/45/41 42/46/42 66/72/66
f 42/46/42 43/47/43 67/73/67
f 43/47/43 44/48/44 68/74/68
f 44/48/44 45/49/45 69/75/69
f 45/49/45 46/50/46 70/76/70
f 46/50/46 47/51/47 71/77/71
f 47/51/47 48/52/48 72/78/72
f 48/52/48 37/40/37 61/66/61
f 73/79/73 74/81/74 50/55/50
f 74/81/74 75/82/75 51/56/51
f 75/82/75 76/83/76 52/57/52
f 76/83/76 77/84/77 53/58/53
f 77/84/77 78/85/78 54/59/54
f 78/85/78 79/86/79 55/60/55
f 79/86/79 80/87/80 56/61/56
f 80/87/80 81/88/81 57/62/57
f 81/88/81 82/89/82 58/63/58
f 82/89/82 83/90/83 59/64/59
f 83/90/83 84/91/84 60/65/60
f 84/91/84 73/80/73 49/54/49
f 61/67/61 62/68/62 86/94/86
f 62/68/62 63/69/63 87/95/87
f 63/69/63 64/70/64 88/96/88
f 64/70/64 65/71/65 89/97/89
f 65/71/65 66/72/66 90/98/90
f 66/72/66 67/73/67 91/99/91
f 67/73/67 68/74/68 92/100/92
f 68/74/68 69/75/69 93/101/93
f 69/75/69 70/76/70 94/102/94
f 70/76/70 71/77/71 95/103/95
f 71/77/71 72/78/72 96/104/96
f 72/78/72 61/66/61 85/92/85
f 97/105/97 98/107/98 74/81/74
f 98/107/98 99/108/99 75/82/75
f 99/108/99 100/109/100 76/83/76
f 100/109/100 101/110/101 77/84/77
f 101/110/101 102/111/102 78/85/78
f 102/111/102 103/112/103 79/86/79
f 103/112/103 104/113/104 80/87/80
f 104/113/104 105/114/105 81/88/81
f 105/114/105 106/115/106 82/89/82
f 106/115/106 107/116/107 83/90/83
f 107/116/107 108/117/108 84/91/84
f 108/117/108 97/106/97 73/80/73
f 85/93/85 86/94/86 110/120/110
f 86/94/86 87/95/87 111/121/111
f 87/95/87 88/96/88 112/122/112
f 88/96/88 89/97/89 113/123/113
f 89/97/89 90/98/90 114/124/114
f 90/98/90 91/99/91 115/125/115
f 91/99/91 92/100/92 116/126/116
f 92/100/92 93/101/93 117/127/117
f 93/101/93 94/102/94 118/128/118
f 94/102/94 95/103/95 119/129/119
f 95/103/95 96/104/96 120/130/120
f 96/104/96 85/92/85 109/118/109
f 121/131/121 122/133/122 98/107/98
f 122/133/122 123/134/123 99/108/99
f 123/134/123 124/135/124 100/109/100
f 124/135/124 125/136/125 101/110/101
f 125/136/125 126/137/126 102/111/102
f 126/137/126 127/138/127 103/112/103
f 127/138/127 128/139/128 104/113/104
f 128/139/128 129/140/129 105/114/105
f 129/140/129 130/141/130 106/115/106
f 130/141/130 131/142/131 107/116/107
f 131/142/131 132/143/132 108/117/108
f 132/143/132 121/132/121 97/106/97
f 133/144/133 132/143/132 131/142/131
f 133/144/133 131/142/131 130/141/130
f 133/144/133 130/141/130 129/140/129
f 133/145/133 129/140/129 128/139/128
f 133/145/133 128/139/128 127/138/127
f 133/145/133 127/138/127 126/137/126
f 133/145/133 126/137/126 125/136/125
f 133/145/133 125/136/125 124/135/124
f 133/145/133 124/135/124 123/134/123
f 133/145/133 123/134/123 122/133/122
f 133/145/133 122/133/122 121/131/121
f 133/144/133 121/132/121 132/143/132
f 134/146/134 109/119/109 110/120/110
f 134/146/134 110/120/110 111/121/111
f 134/146/134 111/121/111 112/122/112
f 134/146/134 112/122/112 113/123/113
f 134/146/134 113/123/113 114/124/114
f 134/146/134 114/124/114 115/125/115
f 134/146/134 115/125/115 116/126/116
f 134/146/134 116/126/116 117/127/117
f 134/147/134 117/127/117 118/128/118
f 134/147/134 118/128/118 119/129/119
f 134/147/134 119/129/119 120/130/120
f 134/147/134 120/130/120 109/118/109
f 1/1/1 14/16/14 13/15/13
f 2/3/2 15/17/15 14/16/14
f 3/4/3 16/18/16 15/17/15
f 4/5/4 17/19/17 16/18/16
f 5/6/5 18/20/18 17/19/17
f 6/7/6 19/21/19 18/20/18
f 7/8/7 20/22/20 19/21/19
f 8/9/8 21/23/21 20/22/20
f 9/10/9 22/24/22 21/23/21
f 10/11/10 23/25/23 22/24/22
f 11/12/11 24/26/24 23/25/23
f 12/13/12 13/14/13 24/26/24
f 25/27/25 2/3/2 1/1/1
f 26/29/26 3/4/3 2/3/2
f 27/30/27 4/5/4 3/4/3
f 28/31/28 5/6/5 4/5/4
f 29/32/29 6/7/6 5/6/5
f 30/33/30 7/8/7 6/7/6
f 31/34/31 8/9/8 7/8/7
f 32/35/32 9/10/9 8/9/8
f 33/36/33 10/11/10 9/10/9
f 34/37/34 11/12/11 10/11/10
f 35/38/35 12/13/12 11/12/11
f 36/39/36 1/2/1 12/13/12
f 13/15/13 38/42/38 37/41/37
f 14/16/14 39/43/39 38/42/38
f 15/17/15 40/44/40 39/43/39
f 16/18/16 41/45/41 40/44/40
f 17/19/17 42/46/42 41/45/41
f 18/20/18 43/47/43 42/46/42
f 19/21/19 44/48/44 43/47/43
f 20/22/20 45/49/45 44/48/44
f 21/23/21 46/50/46 45/49/45
f 22/24/22 47/51/47 46/50/46
f 23/25/23 48/52/48 47/51/47
f 24/26/24 37/40/37 48/52/48
f 49/53/49 26/29/26 25/27/25
f 50/55/50 27/30/27 26/29/26
f 51/56/51 28/31/28 27/30/27
f 52/57/52 29/32/29 28/31/28
f 53/58/53 30/33/30 29/32/29
f 54/59/54 31/34/31 30/33/30
f 55/60/55 32/35/32 31/34/31
f 56/61/56 33/36/33 32/35/32
f 57/62/57 34/37/34 33/36/33
f 58/63/58 35/38/35 34/37/34
f 59/64/59 36/39/36 35/38/35
f 60/65/60 25/28/25 36/39/36
f 37/41/37 62/68/62 61/67/61
f 38/42/38 63/69/63 62/68/62
f 39/43/39 64/70/64 63/69/63
f 40/44/40 65/71/65 64/70/64
f 41/45/41 66/72/66 65/71/65
f 42/46/42 67/73/67 66/72/66
f 43/47/43 68/74/68 67/73/67
f 44/48/44 69/75/69 68/74/68
f 45/49/45 70/76/70 69/75/69
f 46/50/46 71/77/71 70/76/70
f 47/51/47 72/78/72 71/77/71
f 48/52/48 61/66/61 72/78/72
f 73/79/73 50/55/50 49/53/49
f 74/81/74 51/56/51 50/55/50
f 75/82/75 52/57/52 51/56/51
f 76/83/76 53/58/53 52/57/52
f 77/84/77 54/59/54 53/58/53
f 78/85/78 55/60/55 54/59/54
f 79/86/79 56/61/56 55/60/55
f 80/87/80 57/62/57 56/61/56
f 81/88/81 58/63/58 57/62/57
f 82/89/82 59/64/59 58/63/58
f 83/90/83 60/65/60 59/64/59
f 84/91/84 49/54/49 60/65/60
f 61/67/61 86/94/86 85/93/85
f 62/68/62 87/95/87 86/94/86
f 63/69/63 88/96/88 87/95/87
f 64/70/64 89/97/89 88/96/88
f 65/71/65 90/98/90 89/97/89
f 66/72/66 91/99/91 90/98/90
f 67/73/67 92/100/92 91/99/91
f 68/74/68 93/101/93 92/100/92
f 69/75/69 94/102/94 93/101/93
f 70/76/70 95/103/95 94/102/94
f 71/77/71 96/104/96 95/103/95
f 72/78/72 85/92/85 96/104/96
f 97/105/97 74/81/74 73/79/73
f 98/107/98 75/82/75 74/81/74
f 99/108/99 76/83/76 75/82/75
f 100/109/100 77/84/77 76/83/76
f 101/110/101 78/85/78 77/84/77
f 102/111/102 79/86/79 78/85/78
f 103/112/103 80/87/80 79/86/79
f 104/113/104 81/88/81 80/87/80
f 105/114/105 82/89/82 81/88/81
f 106/115/106 83/90/83 82/89/82
f 107/116/107 84/91/84 83/90/83
f 108/117/108 73/80/73 84/91/84
f 85/93/85 110/120/110 109/119/109
f 86/94/86 111/121/111 110/120/110
f 87/95/87 112/122/112 111/121/111
f 88/96/88 113/123/113 112/122/112
f 89/97/89 114/124/114 113/123/113
f 90/98/90 115/125/115 114/124/114
f 91/99/91 116/126/116 115/125/115
f 92/100/92 117/127/117 116/126/116
f 93/101/93 118/128/118 117/127/117
f 94/102/94 119/129/119 118/128/118
f 95/103/95 120/130/120 119/129/119
f 96/104/96 109/118/109 120/130/120
f 121/131/121 98/107/98 97/105/97
f 122/133/122 99/108/99 98/107/98
f 123/134/123 100/109/100 99/108/99
f 124/135/124 101/110/101 100/109/100
f 125/136/125 102/111/102 101/110/101
f 126/137/126 103/112/103 102/111/102
f 127/138/127 104/113/104 103/112/103
f 128/139/128 105/114/105 104/113/104
f 129/140/129 106/115/106 105/114/105
f 130/141/130 107/116/107 106/115/106
f 131/142/131 108/117/108 107/116/107
f 132/143/132 97/106/97 108/117/108
