# Blender OBJ File: /home/william/Documents/Blender/Letters/alphabet.blend
# www.blender.org
#StarLogoCommand ComputeNormals
mtllib y.mtl
o Font.001_Mesh
v -0.00249481201172 0.582000255585 1.20119929314
v -1.10048675537 1.992000103 1.20119929314
v -1.80849456787 1.992000103 1.20119929314
v -0.290489196777 0.0660002231598 1.20119929314
v -0.290489196777 -2.09999990463 1.20119929314
v 0.297508239746 -2.09999990463 1.20119929314
v 0.297508239746 0.0600001811981 1.20119929314
v 1.81551361084 1.992000103 1.20119929314
v 1.10750579834 1.992000103 1.20119929314
v 1.10750579834 1.992000103 0.0
v 1.81551361084 1.992000103 0.0
v 0.297508239746 0.0600001811981 0.0
v 0.297508239746 -2.09999990463 0.0
v -0.290489196777 -2.09999990463 0.0
v -0.290489196777 0.0660002231598 0.0
v -1.80849456787 1.992000103 0.0
v -1.10048675537 1.992000103 0.0
v -0.00249481201172 0.582000255585 0.0
vt 0.0 0.0 0.0
vt 0.0 0.0 0.0
vt 0.0 0.0 0.0
vt 0.0 0.0 0.0
vt 0.0 0.0 0.0
vt 0.0 0.0 0.0
vt 0.0 0.0 0.0
vt 0.0 0.0 0.0
vt 0.0 0.0 0.0
vt 0.0 0.0 0.0
vt 0.0 0.0 0.0
vt 0.0 0.0 0.0
vt 0.0 0.0 0.0
vt 0.0 0.0 0.0
vt 0.0 0.0 0.0
vt 0.0 0.0 0.0
vt 0.0 0.0 0.0
vt 0.0 0.0 0.0
vt 0.0 0.0 0.0
vt 0.0 0.0 0.0
vt 0.0 0.0 0.0
vt 0.0 0.0 0.0
vt 0.0 0.0 0.0
vt 0.0 0.0 0.0
vt 0.0 0.0 0.0
vt 0.0 0.0 0.0
vt 0.0 0.0 0.0
vt 0.0 0.0 0.0
vt 0.0 0.0 0.0
vt 0.0 0.0 0.0
vt 0.0 0.0 0.0
vt 0.0 0.0 0.0
vt 0.0 0.0 0.0
vt 0.0 0.0 0.0
vt 0.0 0.0 0.0
vt 0.0 0.0 0.0
vt 0.0 0.0 0.0
vt 0.0 0.0 0.0
vt 0.0 0.0 0.0
vt 0.0 0.0 0.0
vt 0.0 0.0 0.0
vt 0.0 0.0 0.0
vt 0.0 0.0 0.0
vt 0.0 0.0 0.0
vt 0.0 0.0 0.0
vt 0.0 0.0 0.0
vt 0.0 0.0 0.0
vt 0.0 0.0 0.0
vt 0.0 0.0 0.0
vt 0.0 0.0 0.0
vt 0.0 0.0 0.0
vt 0.0 0.0 0.0
vt 0.0 0.0 0.0
vt 0.0 0.0 0.0
vt 0.0 0.0 0.0
vt 0.0 0.0 0.0
vt 0.0 0.0 0.0
vt 0.0 0.0 0.0
vt 0.0 0.0 0.0
vt 0.0 0.0 0.0
vt 0.0 0.0 0.0
vt 0.0 0.0 0.0
vt 0.0 0.0 0.0
vt 0.0 0.0 0.0
vt 0.0 0.0 0.0
vt 0.0 0.0 0.0
vt 0.0 0.0 0.0
vt 0.0 0.0 0.0
vt 0.0 0.0 0.0
vt 0.0 0.0 0.0
vt 0.0 0.0 0.0
vt 0.0 0.0 0.0
vt 0.0 0.0 0.0
vt 0.0 0.0 0.0
vt 0.0 0.0 0.0
vt 0.0 0.0 0.0
vt 0.0 0.0 0.0
vt 0.0 0.0 0.0
vn 0.577350258827 -0.577350258827 0.577350258827
vn 0.581146776676 -0.200999513268 0.788585841656
vn -0.577350258827 -0.577350258827 0.577350258827
vn 0.581146776676 -0.200999513268 0.788585841656
vn -0.58074682951 -0.201334103942 0.788795113564
vn -0.577350258827 -0.577350258827 0.577350258827
vn 0.581146776676 -0.200999513268 0.788585841656
vn 0.446676075459 -0.00115972198546 0.894695043564
vn -0.58074682951 -0.201334103942 0.788795113564
vn -0.416310548782 0.856548011303 0.304976969957
vn 0.446676075459 -0.00115972198546 0.894695043564
vn 0.581146776676 -0.200999513268 0.788585841656
vn -0.342363834381 0.705297589302 0.620759546757
vn 0.446676075459 -0.00115972198546 0.894695043564
vn -0.416310548782 0.856548011303 0.304976969957
vn 0.446676075459 -0.00115972198546 0.894695043564
vn 0.344379425049 0.704689860344 0.620334625244
vn -0.58074682951 -0.201334103942 0.788795113564
vn 0.344379425049 0.704689860344 0.620334625244
vn -0.415730535984 -0.857035934925 0.304397016764
vn -0.58074682951 -0.201334103942 0.788795113564
vn -0.415730535984 -0.857035934925 -0.304397016764
vn -0.58074682951 -0.201334103942 -0.788795113564
vn -0.58074682951 -0.201334103942 0.788795113564
vn -0.415730535984 -0.857035934925 0.304397016764
vn 0.344379425049 0.704689860344 -0.620334625244
vn -0.415730535984 -0.857035934925 -0.304397016764
vn -0.415730535984 -0.857035934925 0.304397016764
vn 0.344379425049 0.704689860344 0.620334625244
vn 0.344379425049 0.704689860344 0.620334625244
vn 0.446676075459 -0.00115972198546 0.894695043564
vn 0.446676075459 -0.00115972198546 -0.894695043564
vn 0.344379425049 0.704689860344 -0.620334625244
vn 0.446676075459 -0.00115972198546 0.894695043564
vn -0.342363834381 0.705297589302 0.620759546757
vn -0.342363834381 0.705297589302 -0.620759546757
vn 0.446676075459 -0.00115972198546 -0.894695043564
vn -0.416310548782 0.856548011303 -0.304976969957
vn -0.342363834381 0.705297589302 -0.620759546757
vn -0.342363834381 0.705297589302 0.620759546757
vn -0.416310548782 0.856548011303 0.304976969957
vn 0.581146776676 -0.200999513268 -0.788585841656
vn -0.416310548782 0.856548011303 -0.304976969957
vn -0.416310548782 0.856548011303 0.304976969957
vn 0.581146776676 -0.200999513268 0.788585841656
vn -0.58074682951 -0.201334103942 -0.788795113564
vn -0.577350258827 -0.577350258827 -0.577350258827
vn -0.577350258827 -0.577350258827 0.577350258827
vn -0.58074682951 -0.201334103942 0.788795113564
vn 0.577350258827 -0.577350258827 -0.577350258827
vn 0.581146776676 -0.200999513268 -0.788585841656
vn 0.581146776676 -0.200999513268 0.788585841656
vn 0.577350258827 -0.577350258827 0.577350258827
vn -0.577350258827 -0.577350258827 -0.577350258827
vn 0.577350258827 -0.577350258827 -0.577350258827
vn 0.577350258827 -0.577350258827 0.577350258827
vn -0.577350258827 -0.577350258827 0.577350258827
vn -0.577350258827 -0.577350258827 -0.577350258827
vn 0.581146776676 -0.200999513268 -0.788585841656
vn 0.577350258827 -0.577350258827 -0.577350258827
vn -0.577350258827 -0.577350258827 -0.577350258827
vn -0.58074682951 -0.201334103942 -0.788795113564
vn 0.581146776676 -0.200999513268 -0.788585841656
vn -0.58074682951 -0.201334103942 -0.788795113564
vn 0.446676075459 -0.00115972198546 -0.894695043564
vn 0.581146776676 -0.200999513268 -0.788585841656
vn 0.446676075459 -0.00115972198546 -0.894695043564
vn -0.416310548782 0.856548011303 -0.304976969957
vn 0.581146776676 -0.200999513268 -0.788585841656
vn 0.446676075459 -0.00115972198546 -0.894695043564
vn -0.342363834381 0.705297589302 -0.620759546757
vn -0.416310548782 0.856548011303 -0.304976969957
vn -0.58074682951 -0.201334103942 -0.788795113564
vn 0.344379425049 0.704689860344 -0.620334625244
vn 0.446676075459 -0.00115972198546 -0.894695043564
vn -0.58074682951 -0.201334103942 -0.788795113564
vn -0.415730535984 -0.857035934925 -0.304397016764
vn 0.344379425049 0.704689860344 -0.620334625244
f 6/1/1 7/2/2 5/3/3 
f 7/4/4 4/5/5 5/6/6 
f 7/7/7 1/8/8 4/9/9 
f 8/10/10 1/11/11 7/12/12 
f 9/13/13 1/14/14 8/15/15 
f 1/16/16 2/17/17 4/18/18 
f 2/19/19 3/20/20 4/21/21 
f 16/22/22 15/23/23 4/24/24 3/25/25 
f 17/26/26 16/27/27 3/28/28 2/29/29 
f 2/30/30 1/31/31 18/32/32 17/33/33 
f 1/34/34 9/35/35 10/36/36 18/37/37 
f 11/38/38 10/39/39 9/40/40 8/41/41 
f 12/42/42 11/43/43 8/44/44 7/45/45 
f 15/46/46 14/47/47 5/48/48 4/49/49 
f 13/50/50 12/51/51 7/52/52 6/53/53 
f 14/54/54 13/55/55 6/56/56 5/57/57 
f 14/58/58 12/59/59 13/60/60 
f 14/61/61 15/62/62 12/63/63 
f 15/64/64 18/65/65 12/66/66 
f 18/67/67 11/68/68 12/69/69 
f 18/70/70 10/71/71 11/72/72 
f 15/73/73 17/74/74 18/75/75 
f 15/76/76 16/77/77 17/78/78 
