# Blender OBJ File: /home/william/Documents/Blender/Letters/alphabet.blend
# www.blender.org
#StarLogoCommand ComputeNormals
mtllib n.mtl
o Font.001_Mesh
v 1.93375015259 1.992000103 1.20119929314
v 1.38175201416 1.992000103 1.20119929314
v 1.38175201416 -1.17599987984 1.20119929314
v -1.39025115967 1.992000103 1.20119929314
v -1.858253479 1.992000103 1.20119929314
v -1.858253479 -2.09999990463 1.20119929314
v -1.30625152588 -2.09999990463 1.20119929314
v -1.30625152588 1.05000019073 1.20119929314
v 1.42974853516 -2.09999990463 1.20119929314
v 1.93375015259 -2.09999990463 1.20119929314
v 1.93375015259 -2.09999990463 0.0
v 1.42974853516 -2.09999990463 0.0
v -1.30625152588 1.05000019073 0.0
v -1.30625152588 -2.09999990463 0.0
v -1.858253479 -2.09999990463 0.0
v -1.858253479 1.992000103 0.0
v -1.39025115967 1.992000103 0.0
v 1.38175201416 -1.17599987984 0.0
v 1.38175201416 1.992000103 0.0
v 1.93375015259 1.992000103 0.0
vt 0.0 0.0 0.0
vt 0.0 0.0 0.0
vt 0.0 0.0 0.0
vt 0.0 0.0 0.0
vt 0.0 0.0 0.0
vt 0.0 0.0 0.0
vt 0.0 0.0 0.0
vt 0.0 0.0 0.0
vt 0.0 0.0 0.0
vt 0.0 0.0 0.0
vt 0.0 0.0 0.0
vt 0.0 0.0 0.0
vt 0.0 0.0 0.0
vt 0.0 0.0 0.0
vt 0.0 0.0 0.0
vt 0.0 0.0 0.0
vt 0.0 0.0 0.0
vt 0.0 0.0 0.0
vt 0.0 0.0 0.0
vt 0.0 0.0 0.0
vt 0.0 0.0 0.0
vt 0.0 0.0 0.0
vt 0.0 0.0 0.0
vt 0.0 0.0 0.0
vt 0.0 0.0 0.0
vt 0.0 0.0 0.0
vt 0.0 0.0 0.0
vt 0.0 0.0 0.0
vt 0.0 0.0 0.0
vt 0.0 0.0 0.0
vt 0.0 0.0 0.0
vt 0.0 0.0 0.0
vt 0.0 0.0 0.0
vt 0.0 0.0 0.0
vt 0.0 0.0 0.0
vt 0.0 0.0 0.0
vt 0.0 0.0 0.0
vt 0.0 0.0 0.0
vt 0.0 0.0 0.0
vt 0.0 0.0 0.0
vt 0.0 0.0 0.0
vt 0.0 0.0 0.0
vt 0.0 0.0 0.0
vt 0.0 0.0 0.0
vt 0.0 0.0 0.0
vt 0.0 0.0 0.0
vt 0.0 0.0 0.0
vt 0.0 0.0 0.0
vt 0.0 0.0 0.0
vt 0.0 0.0 0.0
vt 0.0 0.0 0.0
vt 0.0 0.0 0.0
vt 0.0 0.0 0.0
vt 0.0 0.0 0.0
vt 0.0 0.0 0.0
vt 0.0 0.0 0.0
vt 0.0 0.0 0.0
vt 0.0 0.0 0.0
vt 0.0 0.0 0.0
vt 0.0 0.0 0.0
vt 0.0 0.0 0.0
vt 0.0 0.0 0.0
vt 0.0 0.0 0.0
vt 0.0 0.0 0.0
vt 0.0 0.0 0.0
vt 0.0 0.0 0.0
vt 0.0 0.0 0.0
vt 0.0 0.0 0.0
vt 0.0 0.0 0.0
vt 0.0 0.0 0.0
vt 0.0 0.0 0.0
vt 0.0 0.0 0.0
vt 0.0 0.0 0.0
vt 0.0 0.0 0.0
vt 0.0 0.0 0.0
vt 0.0 0.0 0.0
vt 0.0 0.0 0.0
vt 0.0 0.0 0.0
vt 0.0 0.0 0.0
vt 0.0 0.0 0.0
vt 0.0 0.0 0.0
vt 0.0 0.0 0.0
vt 0.0 0.0 0.0
vt 0.0 0.0 0.0
vt 0.0 0.0 0.0
vt 0.0 0.0 0.0
vt 0.0 0.0 0.0
vt 0.0 0.0 0.0
vn 0.577350258827 -0.577350258827 0.577350258827
vn 0.437405288219 0.164347454906 0.884119033813
vn -0.32399392128 -0.710583150387 0.624579489231
vn 0.437405288219 0.164347454906 0.884119033813
vn 0.437708973885 0.163553372025 0.884116053581
vn -0.32399392128 -0.710583150387 0.624579489231
vn 0.577350258827 -0.577350258827 0.577350258827
vn 0.437708973885 0.163553372025 0.884116053581
vn -0.577350258827 -0.577350258827 0.577350258827
vn 0.577350258827 -0.577350258827 0.577350258827
vn 0.577350258827 0.577350258827 0.577350258827
vn 0.437405288219 0.164347454906 0.884119033813
vn 0.577350258827 0.577350258827 0.577350258827
vn -0.577350258827 0.577350258827 0.577350258827
vn 0.437405288219 0.164347454906 0.884119033813
vn 0.437405288219 0.164347454906 0.884119033813
vn 0.322617471218 0.710973083973 0.62484818697
vn 0.437708973885 0.163553372025 0.884116053581
vn 0.437708973885 0.163553372025 0.884116053581
vn 0.322617471218 0.710973083973 0.62484818697
vn -0.577350258827 -0.577350258827 0.577350258827
vn 0.322617471218 0.710973083973 0.62484818697
vn -0.577350258827 0.577350258827 0.577350258827
vn -0.577350258827 -0.577350258827 0.577350258827
vn -0.577350258827 0.577350258827 -0.577350258827
vn -0.577350258827 -0.577350258827 -0.577350258827
vn -0.577350258827 -0.577350258827 0.577350258827
vn -0.577350258827 0.577350258827 0.577350258827
vn 0.322617471218 0.710973083973 -0.62484818697
vn -0.577350258827 0.577350258827 -0.577350258827
vn -0.577350258827 0.577350258827 0.577350258827
vn 0.322617471218 0.710973083973 0.62484818697
vn 0.437405288219 0.164347454906 -0.884119033813
vn 0.322617471218 0.710973083973 -0.62484818697
vn 0.322617471218 0.710973083973 0.62484818697
vn 0.437405288219 0.164347454906 0.884119033813
vn -0.577350258827 0.577350258827 -0.577350258827
vn 0.437405288219 0.164347454906 -0.884119033813
vn 0.437405288219 0.164347454906 0.884119033813
vn -0.577350258827 0.577350258827 0.577350258827
vn -0.577350258827 0.577350258827 0.577350258827
vn 0.577350258827 0.577350258827 0.577350258827
vn 0.577350258827 0.577350258827 -0.577350258827
vn -0.577350258827 0.577350258827 -0.577350258827
vn 0.577350258827 0.577350258827 0.577350258827
vn 0.577350258827 -0.577350258827 0.577350258827
vn 0.577350258827 -0.577350258827 -0.577350258827
vn 0.577350258827 0.577350258827 -0.577350258827
vn 0.577350258827 -0.577350258827 -0.577350258827
vn 0.437708973885 0.163553372025 -0.884116053581
vn 0.437708973885 0.163553372025 0.884116053581
vn 0.577350258827 -0.577350258827 0.577350258827
vn -0.577350258827 -0.577350258827 -0.577350258827
vn 0.577350258827 -0.577350258827 -0.577350258827
vn 0.577350258827 -0.577350258827 0.577350258827
vn -0.577350258827 -0.577350258827 0.577350258827
vn 0.437708973885 0.163553372025 -0.884116053581
vn -0.32399392128 -0.710583150387 -0.624579489231
vn -0.32399392128 -0.710583150387 0.624579489231
vn 0.437708973885 0.163553372025 0.884116053581
vn -0.32399392128 -0.710583150387 -0.624579489231
vn 0.577350258827 -0.577350258827 -0.577350258827
vn 0.577350258827 -0.577350258827 0.577350258827
vn -0.32399392128 -0.710583150387 0.624579489231
vn -0.32399392128 -0.710583150387 -0.624579489231
vn 0.437405288219 0.164347454906 -0.884119033813
vn 0.577350258827 -0.577350258827 -0.577350258827
vn -0.32399392128 -0.710583150387 -0.624579489231
vn 0.437708973885 0.163553372025 -0.884116053581
vn 0.437405288219 0.164347454906 -0.884119033813
vn -0.577350258827 -0.577350258827 -0.577350258827
vn 0.437708973885 0.163553372025 -0.884116053581
vn 0.577350258827 -0.577350258827 -0.577350258827
vn 0.437405288219 0.164347454906 -0.884119033813
vn 0.577350258827 0.577350258827 -0.577350258827
vn 0.577350258827 -0.577350258827 -0.577350258827
vn 0.437405288219 0.164347454906 -0.884119033813
vn -0.577350258827 0.577350258827 -0.577350258827
vn 0.577350258827 0.577350258827 -0.577350258827
vn 0.437708973885 0.163553372025 -0.884116053581
vn 0.322617471218 0.710973083973 -0.62484818697
vn 0.437405288219 0.164347454906 -0.884119033813
vn -0.577350258827 -0.577350258827 -0.577350258827
vn 0.322617471218 0.710973083973 -0.62484818697
vn 0.437708973885 0.163553372025 -0.884116053581
vn -0.577350258827 -0.577350258827 -0.577350258827
vn -0.577350258827 0.577350258827 -0.577350258827
vn 0.322617471218 0.710973083973 -0.62484818697
f 10/1/1 3/2/2 9/3/3 
f 3/4/4 8/5/5 9/6/6 
f 7/7/7 8/8/8 6/9/9 
f 10/10/10 1/11/11 3/12/12 
f 1/13/13 2/14/14 3/15/15 
f 3/16/16 4/17/17 8/18/18 
f 8/19/19 4/20/20 6/21/21 
f 4/22/22 5/23/23 6/24/24 
f 16/25/25 15/26/26 6/27/27 5/28/28 
f 17/29/29 16/30/30 5/31/31 4/32/32 
f 18/33/33 17/34/34 4/35/35 3/36/36 
f 19/37/37 18/38/38 3/39/39 2/40/40 
f 2/41/41 1/42/42 20/43/43 19/44/44 
f 1/45/45 10/46/46 11/47/47 20/48/48 
f 14/49/49 13/50/50 8/51/51 7/52/52 
f 15/53/53 14/54/54 7/55/55 6/56/56 
f 13/57/57 12/58/58 9/59/59 8/60/60 
f 12/61/61 11/62/62 10/63/63 9/64/64 
f 12/65/65 18/66/66 11/67/67 
f 12/68/68 13/69/69 18/70/70 
f 15/71/71 13/72/72 14/73/73 
f 18/74/74 20/75/75 11/76/76 
f 18/77/77 19/78/78 20/79/79 
f 13/80/80 17/81/81 18/82/82 
f 15/83/83 17/84/84 13/85/85 
f 15/86/86 16/87/87 17/88/88 
